<svg width="120" height="95" viewBox="0 0 120 95" fill="none" xmlns="http://www.w3.org/2000/svg">
<path d="M101.418 7.79375C93.7834 4.18577 85.593 1.52816 77.0327 0.0059178C76.8775 -0.0221161 76.7222 0.0507716 76.6407 0.196548C75.5867 2.12528 74.4217 4.63992 73.6044 6.61912C64.3963 5.2006 55.2341 5.2006 46.2163 6.61912C45.3995 4.59787 44.1906 2.12528 43.1314 0.196548C43.0497 0.053575 42.8945 -0.0193127 42.7393 0.0059178C34.1816 1.52255 25.9942 4.18017 18.3542 7.79375C18.2888 7.82176 18.2316 7.87226 18.1935 7.93673C2.66281 31.8272 -1.59289 55.1318 0.495482 78.145C0.50365 78.2572 0.566274 78.3666 0.65068 78.4338C10.8965 86.1824 20.8237 90.8861 30.5658 94.0036C30.721 94.0513 30.8871 93.9955 30.9851 93.8605C33.2886 90.6202 35.3443 87.2052 37.1059 83.6116C37.2094 83.4014 37.1113 83.1516 36.8989 83.0677C33.6398 81.795 30.5386 80.2444 27.5544 78.4815C27.3176 78.3384 27.2984 77.9906 27.5163 77.8254C28.1453 77.3405 28.7715 76.8355 29.3732 76.3284C29.4821 76.2357 29.6319 76.2163 29.7599 76.2747C49.3665 85.4927 70.5936 85.4927 89.9684 76.2747C90.0962 76.2102 90.2462 76.2304 90.3604 76.3224C90.9598 76.8328 91.5886 77.3405 92.22 77.8254C92.4378 77.9906 92.4248 78.3384 92.1874 78.4815C89.2033 80.2779 86.0992 81.795 82.8378 83.0623C82.6252 83.1462 82.53 83.3981 82.6337 83.6116C84.4333 87.1999 86.4859 90.6141 88.7486 93.8552C88.8439 93.9922 89.0128 94.0513 89.168 94.0009C98.9565 90.8834 108.884 86.1791 119.13 78.4311C119.219 78.3633 119.276 78.2599 119.285 78.1477C121.781 51.5407 115.1 28.4295 101.573 7.93948C101.54 7.87226 101.483 7.82176 101.418 7.79375ZM40.0329 64.1307C34.1299 64.1307 29.267 58.5519 29.267 51.6976C29.267 44.8433 34.0373 39.2646 40.0329 39.2646C46.0774 39.2646 50.894 44.8938 50.7987 51.6976C50.8014 58.5491 46.0311 64.1307 40.0329 64.1307ZM79.8427 64.1307C73.9397 64.1307 69.0764 58.5519 69.0764 51.6976C69.0764 44.8433 73.8471 39.2646 79.8427 39.2646C85.8872 39.2646 90.7035 44.8938 90.6082 51.6976C90.6082 58.5491 85.8872 64.1307 79.8427 64.1307Z" fill="#6A6FF3"/>
</svg>
