<svg width="107" height="95" viewBox="0 0 107 95" fill="none" xmlns="http://www.w3.org/2000/svg">
<path d="M8.03263 80.8526L12.7187 88.8953C13.6924 90.5888 15.092 91.9193 16.7352 92.8869C21.442 86.9502 24.7177 82.3943 26.5639 79.2197C28.4371 75.9981 30.7394 70.9585 33.471 64.1016C26.1094 63.1385 20.531 62.6572 16.7356 62.6572C13.0926 62.6572 7.51421 63.1385 -0.000488281 64.1016C-0.000488281 65.9762 0.48638 67.8507 1.46012 69.5442L8.03263 80.8526Z" fill="#0066DA"/>
<path d="M89.5199 92.8869C91.1636 91.9193 92.5632 90.5888 93.5365 88.8957L95.484 85.5697L104.795 69.5442C105.751 67.8875 106.255 66.0113 106.256 64.1016C98.6974 63.1385 93.1293 62.6572 89.5506 62.6572C85.7047 62.6572 80.1362 63.1385 72.8452 64.1016C75.5444 70.996 77.8164 76.0357 79.6614 79.2197C81.5221 82.4323 84.8081 86.9877 89.5199 92.8869Z" fill="#EA4335"/>
<path d="M53.1268 30.2367C58.5725 23.7015 62.3255 18.6619 64.3854 15.1186C66.0444 12.2653 67.8703 7.70941 69.8626 1.45139C68.2193 0.483797 66.3329 0 64.3854 0H41.8683C39.9208 0 38.0348 0.544426 36.3911 1.45139C38.9255 8.62875 41.0763 13.7369 42.8428 16.7753C44.7953 20.1335 48.2233 24.6204 53.1268 30.2367Z" fill="#00832D"/>
<path d="M72.7826 64.1025H33.4687L16.7334 92.8879C18.3762 93.8554 20.2627 94.3392 22.2101 94.3392H84.0411C85.9886 94.3392 87.8755 93.7948 89.5183 92.8874L72.783 64.1025H72.7826Z" fill="#2684FC"/>
<path d="M53.1279 30.2361L36.3926 1.45117C34.7489 2.41877 33.3494 3.7489 32.3756 5.44239L1.46012 58.6588C0.504279 60.3156 0.000774535 62.1918 -0.000488281 64.1014H33.471L53.1279 30.2361Z" fill="#00AC47"/>
<path d="M89.3365 32.0508L73.8783 5.4424C72.905 3.7489 71.505 2.41877 69.8618 1.45117L53.1265 30.2365L72.783 64.1019H106.194C106.194 62.2269 105.707 60.3528 104.733 58.6593L89.3365 32.0508Z" fill="#FFBA00"/>
</svg>
