<svg width="103" height="169" viewBox="0 0 103 169" fill="none" xmlns="http://www.w3.org/2000/svg">
<path d="M3.60049 8.03887V4.79937H0.500488V3.74537H3.60049V0.505859H4.77849V3.74537H7.87809V4.79937H4.77849V8.03887H3.60049Z" fill="white"/>
<path d="M11.396 4.93921V3.63721H15.891V4.93921H11.396Z" fill="white"/>
<path d="M20.8501 4.93921V3.63721H25.3451V4.93921H20.8501Z" fill="white"/>
<path d="M30.3042 4.93921V3.63721H34.7992V4.93921H30.3042Z" fill="white"/>
<path d="M39.7578 4.93921V3.63721H44.2528V4.93921H39.7578Z" fill="white"/>
<path d="M49.2119 4.93921V3.63721H53.7069V4.93921H49.2119Z" fill="white"/>
<path d="M58.666 4.93921V3.63721H63.161V4.93921H58.666Z" fill="white"/>
<path d="M68.1191 4.93921V3.63721H72.6141V4.93921H68.1191Z" fill="white"/>
<path d="M77.5732 4.93921V3.63721H82.0682V4.93921H77.5732Z" fill="white"/>
<path d="M87.0269 4.93921V3.63721H91.5219V4.93921H87.0269Z" fill="white"/>
<path d="M98.14 8.03887V4.79937H95.04V3.74537H98.14V0.505859H99.318V3.74537H102.418V4.79937H99.318V8.03887H98.14Z" fill="white"/>
<path d="M3.64697 27.139V13.22H4.73198V27.139H3.64697Z" fill="white"/>
<path d="M23.4542 25.1861C22.1312 25.1861 21.1442 24.7056 20.4932 23.7446C19.8532 22.7836 19.5322 21.3989 19.5322 19.5906C19.5322 17.7823 19.8532 16.3976 20.4932 15.4366C21.1442 14.4756 22.1312 13.9951 23.4542 13.9951C23.9502 13.9951 24.3792 14.0623 24.7402 14.1966C25.1022 14.3309 25.4122 14.5118 25.6702 14.7391C25.9292 14.9664 26.1462 15.2248 26.3212 15.5141C26.4972 15.7931 26.6522 16.0773 26.7862 16.3666L25.6702 16.8781C25.5772 16.6404 25.4692 16.4183 25.3452 16.2116C25.2212 15.9946 25.0712 15.8086 24.8952 15.6536C24.7302 15.4883 24.5282 15.3591 24.2912 15.2661C24.0632 15.1731 23.7842 15.1266 23.4542 15.1266C22.5962 15.1266 21.9552 15.4521 21.5322 16.1031C21.1182 16.7541 20.9122 17.6221 20.9122 18.7071V20.4741C20.9122 21.5591 21.1182 22.4271 21.5322 23.0781C21.9552 23.7291 22.5962 24.0546 23.4542 24.0546C23.7842 24.0546 24.0632 24.0081 24.2912 23.9151C24.5282 23.8221 24.7302 23.6981 24.8952 23.5431C25.0712 23.3778 25.2212 23.1918 25.3452 22.9851C25.4692 22.7681 25.5772 22.5408 25.6702 22.3031L26.7862 22.8146C26.6522 23.1143 26.4972 23.4036 26.3212 23.6826C26.1462 23.9616 25.9292 24.2148 25.6702 24.4421C25.4122 24.6694 25.1022 24.8503 24.7402 24.9846C24.3792 25.1189 23.9502 25.1861 23.4542 25.1861Z" fill="white"/>
<path d="M32.551 25.1861C31.89 25.1861 31.322 25.0621 30.846 24.8141C30.371 24.5558 29.978 24.1889 29.668 23.7136C29.358 23.2383 29.131 22.6544 28.986 21.9621C28.842 21.2698 28.769 20.4793 28.769 19.5906C28.769 18.7123 28.842 17.9269 28.986 17.2346C29.131 16.5319 29.358 15.9429 29.668 15.4676C29.978 14.9923 30.371 14.6306 30.846 14.3826C31.322 14.1243 31.89 13.9951 32.551 13.9951C33.213 13.9951 33.781 14.1243 34.256 14.3826C34.732 14.6306 35.1241 14.9923 35.4341 15.4676C35.7441 15.9429 35.972 16.5319 36.116 17.2346C36.261 17.9269 36.333 18.7123 36.333 19.5906C36.333 20.4793 36.261 21.2698 36.116 21.9621C35.972 22.6544 35.7441 23.2383 35.4341 23.7136C35.1241 24.1889 34.732 24.5558 34.256 24.8141C33.781 25.0621 33.213 25.1861 32.551 25.1861ZM32.551 24.0546C32.985 24.0546 33.352 23.9719 33.652 23.8066C33.951 23.6309 34.199 23.3881 34.396 23.0781C34.592 22.7681 34.732 22.3961 34.814 21.9621C34.907 21.5178 34.954 21.0218 34.954 20.4741V18.7071C34.954 18.1698 34.907 17.6789 34.814 17.2346C34.732 16.7903 34.592 16.4131 34.396 16.1031C34.199 15.7931 33.951 15.5554 33.652 15.3901C33.352 15.2144 32.985 15.1266 32.551 15.1266C32.117 15.1266 31.75 15.2144 31.451 15.3901C31.151 15.5554 30.903 15.7931 30.707 16.1031C30.51 16.4131 30.366 16.7903 30.273 17.2346C30.19 17.6789 30.149 18.1698 30.149 18.7071V20.4741C30.149 21.0218 30.19 21.5178 30.273 21.9621C30.366 22.3961 30.51 22.7681 30.707 23.0781C30.903 23.3881 31.151 23.6309 31.451 23.8066C31.75 23.9719 32.117 24.0546 32.551 24.0546Z" fill="white"/>
<path d="M39.8822 15.8394H39.7732V24.9999H38.5952V14.1809H40.4402L44.1292 23.2484H44.2372V14.1809H45.4152V24.9999H43.5712L39.8822 15.8394Z" fill="white"/>
<path d="M52.1098 15.3124V24.9999H50.8078V15.3124H47.1968V14.1809H55.7218V15.3124H52.1098Z" fill="white"/>
<path d="M57.6582 24.9999V14.1809H64.3232V15.3124H58.9602V18.9549H64.1372V20.0864H58.9602V23.8684H64.3232V24.9999H57.6582Z" fill="white"/>
<path d="M68.243 15.8394H68.135V24.9999H66.957V14.1809H68.801L72.49 23.2484H72.599V14.1809H73.777V24.9999H71.932L68.243 15.8394Z" fill="white"/>
<path d="M80.4721 15.3124V24.9999H79.1701V15.3124H75.5581V14.1809H84.0831V15.3124H80.4721Z" fill="white"/>
<path d="M98.186 27.139V13.22H99.271V27.139H98.186Z" fill="white"/>
<path d="M3.60049 40.0391V36.7996H0.500488V35.7456H3.60049V32.5061H4.77849V35.7456H7.87809V36.7996H4.77849V40.0391H3.60049Z" fill="white"/>
<path d="M11.396 36.939V35.637H15.891V36.939H11.396Z" fill="white"/>
<path d="M20.8501 36.939V35.637H25.3451V36.939H20.8501Z" fill="white"/>
<path d="M30.3042 36.939V35.637H34.7992V36.939H30.3042Z" fill="white"/>
<path d="M39.7578 36.939V35.637H44.2528V36.939H39.7578Z" fill="white"/>
<path d="M49.2119 36.939V35.637H53.7069V36.939H49.2119Z" fill="white"/>
<path d="M58.666 36.939V35.637H63.161V36.939H58.666Z" fill="white"/>
<path d="M68.1191 36.939V35.637H72.6141V36.939H68.1191Z" fill="white"/>
<path d="M77.5732 36.939V35.637H82.0682V36.939H77.5732Z" fill="white"/>
<path d="M87.0269 36.939V35.637H91.5219V36.939H87.0269Z" fill="white"/>
<path d="M98.14 40.0391V36.7996H95.04V35.7456H98.14V32.5061H99.318V35.7456H102.418V36.7996H99.318V40.0391H98.14Z" fill="white"/>
<path d="M22.5082 72.0391V68.7996H19.4082V67.7456H22.5082V64.5061H23.6862V67.7456H26.7862V68.7996H23.6862V72.0391H22.5082Z" fill="white"/>
<path d="M30.3042 68.939V67.637H34.7992V68.939H30.3042Z" fill="white"/>
<path d="M39.7578 68.939V67.637H44.2528V68.939H39.7578Z" fill="white"/>
<path d="M49.2119 68.939V67.637H53.7069V68.939H49.2119Z" fill="white"/>
<path d="M58.666 68.939V67.637H63.161V68.939H58.666Z" fill="white"/>
<path d="M68.1191 68.939V67.637H72.6141V68.939H68.1191Z" fill="white"/>
<path d="M79.2318 72.0391V68.7996H76.1318V67.7456H79.2318V64.5061H80.4098V67.7456H83.5098V68.7996H80.4098V72.0391H79.2318Z" fill="white"/>
<path d="M22.5552 91.139V77.22H23.6402V91.139H22.5552Z" fill="white"/>
<path d="M42.3619 89.1861C41.0389 89.1861 40.0519 88.7056 39.4009 87.7446C38.7599 86.7836 38.4399 85.3989 38.4399 83.5906C38.4399 81.7823 38.7599 80.3976 39.4009 79.4366C40.0519 78.4756 41.0389 77.9951 42.3619 77.9951C42.8579 77.9951 43.2859 78.0623 43.6479 78.1966C44.0099 78.3309 44.3199 78.5118 44.5779 78.7391C44.8359 78.9664 45.0529 79.2248 45.2289 79.5141C45.4049 79.7931 45.5599 80.0773 45.6939 80.3666L44.5779 80.8781C44.4849 80.6404 44.3769 80.4183 44.2529 80.2116C44.1289 79.9946 43.9789 79.8086 43.8029 79.6536C43.6379 79.4883 43.4359 79.3591 43.1989 79.2661C42.9709 79.1731 42.6919 79.1266 42.3619 79.1266C41.5039 79.1266 40.8629 79.4521 40.4399 80.1031C40.0259 80.7541 39.8199 81.6221 39.8199 82.7071V84.4741C39.8199 85.5591 40.0259 86.4271 40.4399 87.0781C40.8629 87.7291 41.5039 88.0546 42.3619 88.0546C42.6919 88.0546 42.9709 88.0081 43.1989 87.9151C43.4359 87.8221 43.6379 87.6981 43.8029 87.5431C43.9789 87.3778 44.1289 87.1918 44.2529 86.9851C44.3769 86.7681 44.4849 86.5408 44.5779 86.3031L45.6939 86.8146C45.5599 87.1143 45.4049 87.4036 45.2289 87.6826C45.0529 87.9616 44.8359 88.2148 44.5779 88.4421C44.3199 88.6694 44.0099 88.8503 43.6479 88.9846C43.2859 89.1189 42.8579 89.1861 42.3619 89.1861Z" fill="white"/>
<path d="M53.8618 80.1494H53.7378L51.4588 85.7139L49.1808 80.1494H49.0568V88.9999H47.8628V78.1809H49.5368L51.4438 82.9549H51.5368L53.4428 78.1809H55.0548V88.9999H53.8618V80.1494Z" fill="white"/>
<path d="M60.8819 89.1861C59.9109 89.1861 59.1149 89.0104 58.4949 88.6591C57.8749 88.2974 57.3639 87.8376 56.9609 87.2796L57.9059 86.5046C58.3299 87.0316 58.7739 87.4243 59.2389 87.6826C59.7139 87.9409 60.2779 88.0701 60.9289 88.0701C61.7139 88.0701 62.3129 87.8893 62.7269 87.5276C63.1399 87.1659 63.3469 86.6596 63.3469 86.0086C63.3469 85.4816 63.1969 85.0734 62.8969 84.7841C62.5969 84.4844 62.0759 84.2726 61.3319 84.1486L60.1229 83.9471C59.5959 83.8541 59.1509 83.7146 58.7899 83.5286C58.4379 83.3426 58.1539 83.1204 57.9369 82.8621C57.7199 82.5934 57.5649 82.3041 57.4719 81.9941C57.3789 81.6738 57.3329 81.3431 57.3329 81.0021C57.3329 80.0101 57.6579 79.2609 58.3089 78.7546C58.9599 78.2483 59.8379 77.9951 60.9439 77.9951C61.8119 77.9951 62.5409 78.1398 63.1299 78.4291C63.7289 78.7184 64.2089 79.1266 64.5709 79.6536L63.6569 80.4441C63.3569 80.0514 62.9949 79.7311 62.5719 79.4831C62.1479 79.2351 61.5999 79.1111 60.9289 79.1111C60.1949 79.1111 59.6319 79.2661 59.2389 79.5761C58.8459 79.8861 58.6499 80.3511 58.6499 80.9711C58.6499 81.4568 58.7949 81.8546 59.0839 82.1646C59.3839 82.4643 59.9159 82.6813 60.6809 82.8156L61.8429 83.0171C62.3699 83.1101 62.8139 83.2496 63.1759 83.4356C63.5379 83.6216 63.8269 83.8438 64.0439 84.1021C64.2709 84.3604 64.4319 84.6498 64.5249 84.9701C64.6179 85.2904 64.6639 85.6263 64.6639 85.9776C64.6639 86.9799 64.3329 87.7653 63.6719 88.3336C63.0209 88.9019 62.0909 89.1861 60.8819 89.1861Z" fill="white"/>
<path d="M79.2778 91.139V77.22H80.3628V91.139H79.2778Z" fill="white"/>
<path d="M22.5082 104.039V100.799H19.4082V99.7451H22.5082V96.5061H23.6862V99.7451H26.7862V100.799H23.6862V104.039H22.5082Z" fill="white"/>
<path d="M30.3042 100.939V99.637H34.7992V100.939H30.3042Z" fill="white"/>
<path d="M39.7578 100.939V99.637H44.2528V100.939H39.7578Z" fill="white"/>
<path d="M49.2119 100.939V99.637H53.7069V100.939H49.2119Z" fill="white"/>
<path d="M58.666 100.939V99.637H63.161V100.939H58.666Z" fill="white"/>
<path d="M68.1191 100.939V99.637H72.6141V100.939H68.1191Z" fill="white"/>
<path d="M79.2318 104.039V100.799H76.1318V99.7451H79.2318V96.5061H80.4098V99.7451H83.5098V100.799H80.4098V104.039H79.2318Z" fill="white"/>
<path d="M3.60049 136.039V132.799H0.500488V131.745H3.60049V128.506H4.77849V131.745H7.87809V132.799H4.77849V136.039H3.60049Z" fill="white"/>
<path d="M11.396 132.939V131.637H15.891V132.939H11.396Z" fill="white"/>
<path d="M20.8501 132.939V131.637H25.3451V132.939H20.8501Z" fill="white"/>
<path d="M30.3042 132.939V131.637H34.7992V132.939H30.3042Z" fill="white"/>
<path d="M39.7578 132.939V131.637H44.2528V132.939H39.7578Z" fill="white"/>
<path d="M49.2119 132.939V131.637H53.7069V132.939H49.2119Z" fill="white"/>
<path d="M58.666 132.939V131.637H63.161V132.939H58.666Z" fill="white"/>
<path d="M68.1191 132.939V131.637H72.6141V132.939H68.1191Z" fill="white"/>
<path d="M77.5732 132.939V131.637H82.0682V132.939H77.5732Z" fill="white"/>
<path d="M87.0269 132.939V131.637H91.5219V132.939H87.0269Z" fill="white"/>
<path d="M98.14 136.039V132.799H95.04V131.745H98.14V128.506H99.318V131.745H102.418V132.799H99.318V136.039H98.14Z" fill="white"/>
<path d="M3.64697 155.139V141.22H4.73198V155.139H3.64697Z" fill="white"/>
<path d="M19.8422 153L18.9902 142.181H20.1522L20.6022 148.381L20.8342 151.651H20.9582L22.3842 145.002H23.8412L25.2672 151.651H25.3912L25.6242 148.381L26.0732 142.181H27.2052L26.3522 153H24.4772L23.1592 146.536H23.0352L21.7182 153H19.8422Z" fill="white"/>
<path d="M32.6909 153.186C32.1119 153.186 31.5899 153.088 31.1249 152.891C30.6709 152.695 30.2779 152.416 29.9469 152.054C29.6269 151.682 29.3789 151.243 29.2029 150.737C29.0279 150.22 28.9399 149.647 28.9399 149.016C28.9399 148.376 29.0279 147.797 29.2029 147.28C29.3889 146.764 29.6419 146.325 29.9629 145.963C30.2829 145.591 30.6649 145.307 31.1099 145.11C31.5639 144.914 32.0659 144.816 32.6129 144.816C33.1509 144.816 33.6359 144.914 34.0699 145.11C34.5149 145.307 34.8919 145.581 35.2019 145.932C35.5119 146.273 35.7489 146.681 35.9149 147.156C36.0799 147.632 36.1629 148.154 36.1629 148.722V149.311H30.2419V149.683C30.2419 150.034 30.2989 150.36 30.4119 150.659C30.5259 150.959 30.6859 151.217 30.8929 151.434C31.1099 151.651 31.3679 151.822 31.6679 151.946C31.9779 152.06 32.3189 152.116 32.6909 152.116C33.2279 152.116 33.6929 151.992 34.0859 151.744C34.4779 151.496 34.7779 151.155 34.9849 150.721L35.8989 151.341C35.6619 151.879 35.2639 152.323 34.7059 152.674C34.1579 153.015 33.4859 153.186 32.6909 153.186ZM32.6129 145.839C32.2719 145.839 31.9569 145.901 31.6679 146.025C31.3779 146.149 31.1249 146.319 30.9079 146.536C30.7019 146.753 30.5359 147.012 30.4119 147.311C30.2989 147.601 30.2419 147.921 30.2419 148.272V148.381H34.8299V148.21C34.8299 147.859 34.7729 147.539 34.6589 147.249C34.5559 146.96 34.4059 146.712 34.2099 146.505C34.0239 146.288 33.7909 146.123 33.5119 146.009C33.2439 145.896 32.9439 145.839 32.6129 145.839Z" fill="white"/>
<path d="M38.8281 141.53H40.0681V146.304H40.1301C40.6461 145.312 41.4681 144.816 42.5941 144.816C43.5761 144.816 44.3401 145.183 44.8881 145.916C45.4461 146.65 45.7251 147.678 45.7251 149.001C45.7251 150.324 45.4461 151.352 44.8881 152.085C44.3401 152.819 43.5761 153.186 42.5941 153.186C41.4681 153.186 40.6461 152.69 40.1301 151.698H40.0681V153H38.8281V141.53ZM42.1141 152.085C42.8371 152.085 43.3951 151.868 43.7881 151.434C44.1911 150.99 44.3921 150.406 44.3921 149.683V148.319C44.3921 147.596 44.1911 147.017 43.7881 146.583C43.3951 146.139 42.8371 145.916 42.1141 145.916C41.8351 145.916 41.5711 145.953 41.3231 146.025C41.0751 146.097 40.8581 146.206 40.6721 146.35C40.4861 146.485 40.3361 146.655 40.2231 146.862C40.1191 147.058 40.0681 147.291 40.0681 147.559V150.442C40.0681 150.711 40.1191 150.949 40.2231 151.155C40.3361 151.352 40.4861 151.522 40.6721 151.667C40.8581 151.801 41.0751 151.905 41.3231 151.977C41.5711 152.049 41.8351 152.085 42.1141 152.085Z" fill="white"/>
<path d="M51.5521 153.186C50.7151 153.186 49.9921 153.046 49.3821 152.767C48.7831 152.478 48.2711 152.096 47.8481 151.62L48.6851 150.892C49.0671 151.295 49.4851 151.605 49.9401 151.822C50.3951 152.039 50.9421 152.147 51.5831 152.147C52.2031 152.147 52.7091 152.039 53.1021 151.822C53.5051 151.595 53.7071 151.243 53.7071 150.768C53.7071 150.561 53.6651 150.391 53.5831 150.256C53.5101 150.112 53.4071 149.998 53.2731 149.915C53.1381 149.833 52.9881 149.771 52.8231 149.729C52.6581 149.678 52.4821 149.636 52.2961 149.605L51.0411 149.419C50.7621 149.378 50.4571 149.321 50.1261 149.249C49.8061 149.177 49.5111 149.063 49.2431 148.908C48.9741 148.743 48.7471 148.526 48.5611 148.257C48.3851 147.988 48.2971 147.637 48.2971 147.203C48.2971 146.8 48.3751 146.454 48.5301 146.164C48.6951 145.865 48.9221 145.617 49.2121 145.42C49.5011 145.214 49.8421 145.064 50.2351 144.971C50.6271 144.868 51.0561 144.816 51.5211 144.816C52.2441 144.816 52.8701 144.93 53.3971 145.157C53.9341 145.384 54.3941 145.699 54.7761 146.102L53.9701 146.862C53.8771 146.748 53.7581 146.635 53.6141 146.521C53.4791 146.397 53.3091 146.288 53.1021 146.195C52.9061 146.092 52.6731 146.009 52.4051 145.947C52.1361 145.885 51.8261 145.854 51.4751 145.854C50.8441 145.854 50.3591 145.963 50.0181 146.18C49.6871 146.397 49.5221 146.712 49.5221 147.125C49.5221 147.332 49.5581 147.508 49.6301 147.652C49.7131 147.787 49.8211 147.895 49.9561 147.978C50.0901 148.061 50.2401 148.128 50.4051 148.179C50.5811 148.221 50.7561 148.257 50.9321 148.288L52.1881 148.474C52.4771 148.515 52.7821 148.572 53.1021 148.644C53.4221 148.717 53.7171 148.836 53.9861 149.001C54.2541 149.156 54.4761 149.368 54.6521 149.636C54.8381 149.905 54.9311 150.256 54.9311 150.69C54.9311 151.486 54.6211 152.101 54.0011 152.535C53.3911 152.969 52.5751 153.186 51.5521 153.186Z" fill="white"/>
<path d="M61.4092 143.235C61.0472 143.235 60.7942 143.163 60.6502 143.018C60.5052 142.863 60.4332 142.672 60.4332 142.444V142.196C60.4332 141.969 60.5052 141.783 60.6502 141.638C60.7942 141.483 61.0472 141.406 61.4092 141.406C61.7712 141.406 62.0243 141.483 62.1693 141.638C62.3133 141.783 62.3862 141.969 62.3862 142.196V142.444C62.3862 142.672 62.3133 142.863 62.1693 143.018C62.0243 143.163 61.7712 143.235 61.4092 143.235ZM57.9062 151.946H60.7892V146.056H57.9062V145.002H62.0293V151.946H64.7262V153H57.9062V151.946Z" fill="white"/>
<path d="M70.7538 153C70.1448 153 69.6948 152.829 69.4058 152.488C69.1268 152.147 68.9868 151.708 68.9868 151.171V146.056H66.3208V145.002H68.3048C68.5738 145.002 68.7598 144.95 68.8628 144.847C68.9768 144.733 69.0338 144.542 69.0338 144.273V142.181H70.2268V145.002H73.8698V146.056H70.2268V151.946H73.8698V153H70.7538Z" fill="white"/>
<path d="M79.96 153.186C79.382 153.186 78.86 153.088 78.395 152.891C77.94 152.695 77.548 152.416 77.217 152.054C76.897 151.682 76.649 151.243 76.473 150.737C76.297 150.22 76.209 149.647 76.209 149.016C76.209 148.376 76.297 147.797 76.473 147.28C76.659 146.764 76.912 146.325 77.232 145.963C77.553 145.591 77.935 145.307 78.379 145.11C78.834 144.914 79.335 144.816 79.883 144.816C80.42 144.816 80.906 144.914 81.34 145.11C81.784 145.307 82.161 145.581 82.471 145.932C82.781 146.273 83.019 146.681 83.184 147.156C83.35 147.632 83.432 148.154 83.432 148.722V149.311H77.511V149.683C77.511 150.034 77.568 150.36 77.682 150.659C77.796 150.959 77.956 151.217 78.162 151.434C78.379 151.651 78.638 151.822 78.937 151.946C79.247 152.06 79.588 152.116 79.96 152.116C80.498 152.116 80.963 151.992 81.355 151.744C81.748 151.496 82.048 151.155 82.254 150.721L83.169 151.341C82.931 151.879 82.533 152.323 81.975 152.674C81.428 153.015 80.756 153.186 79.96 153.186ZM79.883 145.839C79.542 145.839 79.227 145.901 78.937 146.025C78.648 146.149 78.395 146.319 78.178 146.536C77.971 146.753 77.806 147.012 77.682 147.311C77.568 147.601 77.511 147.921 77.511 148.272V148.381H82.099V148.21C82.099 147.859 82.043 147.539 81.929 147.249C81.826 146.96 81.676 146.712 81.479 146.505C81.293 146.288 81.061 146.123 80.782 146.009C80.513 145.896 80.214 145.839 79.883 145.839Z" fill="white"/>
<path d="M98.186 155.139V141.22H99.271V155.139H98.186Z" fill="white"/>
<path d="M3.60049 168.039V164.799H0.500488V163.745H3.60049V160.506H4.77849V163.745H7.87809V164.799H4.77849V168.039H3.60049Z" fill="white"/>
<path d="M11.396 164.939V163.637H15.891V164.939H11.396Z" fill="white"/>
<path d="M20.8501 164.939V163.637H25.3451V164.939H20.8501Z" fill="white"/>
<path d="M30.3042 164.939V163.637H34.7992V164.939H30.3042Z" fill="white"/>
<path d="M39.7578 164.939V163.637H44.2528V164.939H39.7578Z" fill="white"/>
<path d="M49.2119 164.939V163.637H53.7069V164.939H49.2119Z" fill="white"/>
<path d="M58.666 164.939V163.637H63.161V164.939H58.666Z" fill="white"/>
<path d="M68.1191 164.939V163.637H72.6141V164.939H68.1191Z" fill="white"/>
<path d="M77.5732 164.939V163.637H82.0682V164.939H77.5732Z" fill="white"/>
<path d="M87.0269 164.939V163.637H91.5219V164.939H87.0269Z" fill="white"/>
<path d="M98.14 168.039V164.799H95.04V163.745H98.14V160.506H99.318V163.745H102.418V164.799H99.318V168.039H98.14Z" fill="white"/>
<path d="M64 63V39H40V63H64Z" fill="black"/>
<path d="M48.535 43.3174L51.65 48.8199H51.774L54.8891 43.3174H56.207L52.3481 49.9824H51.107L47.248 43.3174H48.535ZM48.534 52.7713L51.65 58.2738H51.774L54.8891 52.7713H56.207L52.347 59.4363H51.107L47.248 52.7713H48.534Z" fill="white"/>
<path d="M64 129V105H40V129H64Z" fill="black"/>
<path d="M48.535 109.317L51.65 114.82H51.774L54.8891 109.317H56.207L52.3481 115.983H51.107L47.248 109.317H48.535ZM48.534 118.771L51.65 124.274H51.774L54.8891 118.771H56.207L52.347 125.436H51.107L47.248 118.771H48.534Z" fill="white"/>
<path d="M67.792 75.8889L35.458 92.556" stroke="#FF0000" stroke-width="2"/>
<path d="M35.209 75.8889L67.5425 92.5557" stroke="#FF0000" stroke-width="2"/>
</svg>
