<svg width="867" height="81" viewBox="0 0 867 81" fill="none" xmlns="http://www.w3.org/2000/svg">
<path d="M6.85899 16.0159V9.32787H0.458984V7.15187H6.85899V0.463867H9.29099V7.15187H15.691V9.32787H9.29099V16.0159H6.85899Z" fill="white"/>
<path d="M22.7825 9.61588V6.92787H32.0625V9.61588H22.7825Z" fill="white"/>
<path d="M42.13 9.61588V6.92787H51.41V9.61588H42.13Z" fill="white"/>
<path d="M61.4775 9.61588V6.92787H70.7575V9.61588H61.4775Z" fill="white"/>
<path d="M80.825 9.61588V6.92787H90.105V9.61588H80.825Z" fill="white"/>
<path d="M100.172 9.61588V6.92787H109.452V9.61588H100.172Z" fill="white"/>
<path d="M119.52 9.61588V6.92787H128.8V9.61588H119.52Z" fill="white"/>
<path d="M138.867 9.61588V6.92787H148.147V9.61588H138.867Z" fill="white"/>
<path d="M158.215 9.61588V6.92787H167.495V9.61588H158.215Z" fill="white"/>
<path d="M177.562 9.61588V6.92787H186.842V9.61588H177.562Z" fill="white"/>
<path d="M200.334 16.0159V9.32787H193.934V7.15187H200.334V0.463867H202.766V7.15187H209.166V9.32787H202.766V16.0159H200.334Z" fill="white"/>
<path d="M374.461 16.0159V9.32787H368.062V7.15187H374.461V0.463867H376.893V7.15187H383.294V9.32787H376.893V16.0159H374.461Z" fill="white"/>
<path d="M390.385 9.61588V6.92787H399.665V9.61588H390.385Z" fill="white"/>
<path d="M409.733 9.61588V6.92787H419.013V9.61588H409.733Z" fill="white"/>
<path d="M429.08 9.61588V6.92787H438.36V9.61588H429.08Z" fill="white"/>
<path d="M448.428 9.61588V6.92787H457.708V9.61588H448.428Z" fill="white"/>
<path d="M467.775 9.61588V6.92787H477.055V9.61588H467.775Z" fill="white"/>
<path d="M490.546 16.0159V9.32787H484.146V7.15187H490.546V0.463867H492.978V7.15187H499.378V9.32787H492.978V16.0159H490.546Z" fill="white"/>
<path d="M664.674 16.0159V9.32787H658.274V7.15187H664.674V0.463867H667.106V7.15187H673.506V9.32787H667.106V16.0159H664.674Z" fill="white"/>
<path d="M680.598 9.61588V6.92787H689.878V9.61588H680.598Z" fill="white"/>
<path d="M699.945 9.61588V6.92787H709.225V9.61588H699.945Z" fill="white"/>
<path d="M719.293 9.61588V6.92787H728.573V9.61588H719.293Z" fill="white"/>
<path d="M738.64 9.61588V6.92787H747.92V9.61588H738.64Z" fill="white"/>
<path d="M757.988 9.61588V6.92787H767.268V9.61588H757.988Z" fill="white"/>
<path d="M777.335 9.61588V6.92787H786.615V9.61588H777.335Z" fill="white"/>
<path d="M796.682 9.61588V6.92787H805.962V9.61588H796.682Z" fill="white"/>
<path d="M816.03 9.61588V6.92787H825.31V9.61588H816.03Z" fill="white"/>
<path d="M835.378 9.61588V6.92787H844.658V9.61588H835.378Z" fill="white"/>
<path d="M858.149 16.0159V9.32787H851.749V7.15187H858.149V0.463867H860.581V7.15187H866.981V9.32787H860.581V16.0159H858.149Z" fill="white"/>
<path d="M6.95499 54.4159V25.6799H9.19499V54.4159H6.95499Z" fill="white"/>
<path d="M47.506 50.3839C44.7753 50.3839 42.738 49.3919 41.394 47.4079C40.0713 45.4239 39.41 42.5652 39.41 38.8319C39.41 35.0985 40.0713 32.2399 41.394 30.2559C42.738 28.2719 44.7753 27.2799 47.506 27.2799C48.53 27.2799 49.4153 27.4185 50.162 27.6959C50.9086 27.9732 51.5487 28.3465 52.082 28.8159C52.6153 29.2852 53.0633 29.8185 53.426 30.4159C53.7886 30.9919 54.1086 31.5785 54.386 32.1759L52.082 33.2319C51.89 32.7412 51.666 32.2825 51.41 31.8559C51.154 31.4079 50.8446 31.0239 50.482 30.7039C50.1406 30.3625 49.7246 30.0959 49.234 29.9039C48.7646 29.7119 48.1886 29.6159 47.506 29.6159C45.7353 29.6159 44.4126 30.2879 43.538 31.6319C42.6846 32.9759 42.258 34.7679 42.258 37.0079V40.6559C42.258 42.8959 42.6846 44.6879 43.538 46.0319C44.4126 47.3759 45.7353 48.0479 47.506 48.0479C48.1886 48.0479 48.7646 47.9519 49.234 47.7599C49.7246 47.5679 50.1406 47.3119 50.482 46.9919C50.8446 46.6505 51.154 46.2665 51.41 45.8399C51.666 45.3919 51.89 44.9225 52.082 44.4319L54.386 45.4879C54.1086 46.1065 53.7886 46.7039 53.426 47.2799C53.0633 47.8559 52.6153 48.3785 52.082 48.8479C51.5487 49.3172 50.9086 49.6905 50.162 49.9679C49.4153 50.2452 48.53 50.3839 47.506 50.3839Z" fill="white"/>
<path d="M66.1175 50.3839C64.7521 50.3839 63.5788 50.1279 62.5975 49.6159C61.6162 49.0825 60.8055 48.3252 60.1655 47.3439C59.5255 46.3625 59.0561 45.1572 58.7575 43.7279C58.4588 42.2985 58.3095 40.6665 58.3095 38.8319C58.3095 37.0185 58.4588 35.3972 58.7575 33.9679C59.0561 32.5172 59.5255 31.3012 60.1655 30.3199C60.8055 29.3385 61.6162 28.5919 62.5975 28.0799C63.5788 27.5465 64.7521 27.2799 66.1175 27.2799C67.4828 27.2799 68.6562 27.5465 69.6375 28.0799C70.6188 28.5919 71.4295 29.3385 72.0695 30.3199C72.7095 31.3012 73.1788 32.5172 73.4775 33.9679C73.7762 35.3972 73.9255 37.0185 73.9255 38.8319C73.9255 40.6665 73.7762 42.2985 73.4775 43.7279C73.1788 45.1572 72.7095 46.3625 72.0695 47.3439C71.4295 48.3252 70.6188 49.0825 69.6375 49.6159C68.6562 50.1279 67.4828 50.3839 66.1175 50.3839ZM66.1175 48.0479C67.0135 48.0479 67.7708 47.8772 68.3895 47.5359C69.0081 47.1732 69.5202 46.6719 69.9255 46.0319C70.3308 45.3919 70.6188 44.6239 70.7895 43.7279C70.9815 42.8105 71.0775 41.7865 71.0775 40.6559V37.0079C71.0775 35.8985 70.9815 34.8852 70.7895 33.9679C70.6188 33.0505 70.3308 32.2719 69.9255 31.6319C69.5202 30.9919 69.0081 30.5012 68.3895 30.1599C67.7708 29.7972 67.0135 29.6159 66.1175 29.6159C65.2215 29.6159 64.4641 29.7972 63.8455 30.1599C63.2268 30.5012 62.7148 30.9919 62.3095 31.6319C61.9041 32.2719 61.6055 33.0505 61.4135 33.9679C61.2428 34.8852 61.1575 35.8985 61.1575 37.0079V40.6559C61.1575 41.7865 61.2428 42.8105 61.4135 43.7279C61.6055 44.6239 61.9041 45.3919 62.3095 46.0319C62.7148 46.6719 63.2268 47.1732 63.8455 47.5359C64.4641 47.8772 65.2215 48.0479 66.1175 48.0479Z" fill="white"/>
<path d="M81.081 31.0879H80.857V49.9999H78.425V27.6639H82.233L89.849 46.3839H90.073V27.6639H92.505V49.9999H88.697L81.081 31.0879Z" fill="white"/>
<path d="M106.156 29.9999V49.9999H103.468V29.9999H96.0125V27.6639H113.612V29.9999H106.156Z" fill="white"/>
<path d="M117.44 49.9999V27.6639H131.2V29.9999H120.128V37.5199H130.816V39.8559H120.128V47.6639H131.2V49.9999H117.44Z" fill="white"/>
<path d="M139.123 31.0879H138.899V49.9999H136.467V27.6639H140.275L147.891 46.3839H148.115V27.6639H150.547V49.9999H146.739L139.123 31.0879Z" fill="white"/>
<path d="M164.199 29.9999V49.9999H161.511V29.9999H154.055V27.6639H171.655V29.9999H164.199Z" fill="white"/>
<path d="M200.43 54.4159V25.6799H202.67V54.4159H200.43Z" fill="white"/>
<path d="M272.06 46.8319L283.42 40.3999V40.1439L272.06 33.7119V30.9919L285.82 38.9599V41.5199L272.06 49.4879V46.8319Z" fill="white"/>
<path d="M291.407 46.8319L302.767 40.3999V40.1439L291.407 33.7119V30.9919L305.167 38.9599V41.5199L291.407 49.4879V46.8319Z" fill="white"/>
<path d="M374.557 54.4159V25.6799H376.797V54.4159H374.557Z" fill="white"/>
<path d="M415.109 50.3839C412.378 50.3839 410.341 49.3919 408.997 47.4079C407.674 45.4239 407.013 42.5652 407.013 38.8319C407.013 35.0985 407.674 32.2399 408.997 30.2559C410.341 28.2719 412.378 27.2799 415.109 27.2799C416.133 27.2799 417.018 27.4185 417.765 27.6959C418.511 27.9732 419.151 28.3465 419.685 28.8159C420.218 29.2852 420.666 29.8185 421.029 30.4159C421.391 30.9919 421.711 31.5785 421.989 32.1759L419.685 33.2319C419.493 32.7412 419.269 32.2825 419.013 31.8559C418.757 31.4079 418.447 31.0239 418.085 30.7039C417.743 30.3625 417.327 30.0959 416.836 29.9039C416.367 29.7119 415.791 29.6159 415.109 29.6159C413.338 29.6159 412.015 30.2879 411.141 31.6319C410.287 32.9759 409.861 34.7679 409.861 37.0079V40.6559C409.861 42.8959 410.287 44.6879 411.141 46.0319C412.015 47.3759 413.338 48.0479 415.109 48.0479C415.791 48.0479 416.367 47.9519 416.836 47.7599C417.327 47.5679 417.743 47.3119 418.085 46.9919C418.447 46.6505 418.757 46.2665 419.013 45.8399C419.269 45.3919 419.493 44.9225 419.685 44.4319L421.989 45.4879C421.711 46.1065 421.391 46.7039 421.029 47.2799C420.666 47.8559 420.218 48.3785 419.685 48.8479C419.151 49.3172 418.511 49.6905 417.765 49.9679C417.018 50.2452 416.133 50.3839 415.109 50.3839Z" fill="white"/>
<path d="M438.68 31.7279H438.424L433.72 43.2159L429.016 31.7279H428.76V49.9999H426.296V27.6639H429.752L433.688 37.5199H433.88L437.816 27.6639H441.144V49.9999H438.68V31.7279Z" fill="white"/>
<path d="M453.004 50.3839C450.998 50.3839 449.356 50.0212 448.076 49.2959C446.796 48.5492 445.74 47.5999 444.908 46.4479L446.859 44.8479C447.734 45.9359 448.652 46.7465 449.612 47.2799C450.593 47.8132 451.756 48.0799 453.1 48.0799C454.721 48.0799 455.958 47.7065 456.812 46.9599C457.665 46.2132 458.092 45.1679 458.092 43.8239C458.092 42.7359 457.782 41.8932 457.164 41.2959C456.545 40.6772 455.468 40.2399 453.932 39.9839L451.436 39.5679C450.348 39.3759 449.43 39.0879 448.684 38.7039C447.958 38.3199 447.372 37.8612 446.924 37.3279C446.476 36.7732 446.156 36.1759 445.964 35.5359C445.772 34.8745 445.676 34.1919 445.676 33.4879C445.676 31.4399 446.348 29.8932 447.692 28.8479C449.036 27.8025 450.849 27.2799 453.132 27.2799C454.924 27.2799 456.427 27.5785 457.643 28.1759C458.881 28.7732 459.873 29.6159 460.62 30.7039L458.732 32.3359C458.113 31.5252 457.366 30.8639 456.492 30.3519C455.617 29.8399 454.486 29.5839 453.1 29.5839C451.585 29.5839 450.422 29.9039 449.612 30.5439C448.801 31.1839 448.396 32.1439 448.396 33.4239C448.396 34.4265 448.694 35.2479 449.292 35.8879C449.91 36.5065 451.009 36.9545 452.588 37.2319L454.988 37.6479C456.076 37.8399 456.993 38.1279 457.74 38.5119C458.486 38.8959 459.084 39.3545 459.532 39.8879C460.001 40.4212 460.331 41.0185 460.523 41.6799C460.715 42.3412 460.812 43.0345 460.812 43.7599C460.812 45.8292 460.129 47.4505 458.764 48.6239C457.42 49.7972 455.5 50.3839 453.004 50.3839Z" fill="white"/>
<path d="M490.642 54.4159V25.6799H492.882V54.4159H490.642Z" fill="white"/>
<path d="M562.272 46.8319L573.633 40.3999V40.1439L562.272 33.7119V30.9919L576.032 38.9599V41.5199L562.272 49.4879V46.8319Z" fill="white"/>
<path d="M581.62 46.8319L592.98 40.3999V40.1439L581.62 33.7119V30.9919L595.38 38.9599V41.5199L581.62 49.4879V46.8319Z" fill="white"/>
<path d="M664.77 54.4159V25.6799H667.01V54.4159H664.77Z" fill="white"/>
<path d="M697.865 49.9999L696.105 27.6639H698.505L699.433 40.4639L699.913 47.2159H700.169L703.113 33.4879H706.121L709.065 47.2159H709.321L709.801 40.4639L710.729 27.6639H713.065L711.305 49.9999H707.433L704.713 36.6559H704.457L701.737 49.9999H697.865Z" fill="white"/>
<path d="M717.213 49.9999V27.6639H730.973V29.9999H719.901V37.5199H730.589V39.8559H719.901V47.6639H730.973V49.9999H717.213Z" fill="white"/>
<path d="M736.496 27.6639H744.08C746 27.6639 747.504 28.1865 748.592 29.2319C749.68 30.2772 750.224 31.6745 750.224 33.4239C750.224 34.7679 749.893 35.8239 749.232 36.5919C748.592 37.3599 747.76 37.9039 746.736 38.2239V38.3199C747.995 38.6185 749.029 39.1839 749.84 40.0159C750.651 40.8265 751.056 42.0105 751.056 43.5679C751.056 44.4639 750.907 45.3065 750.608 46.0959C750.309 46.8852 749.883 47.5679 749.328 48.1439C748.795 48.7199 748.155 49.1785 747.408 49.5199C746.683 49.8399 745.893 49.9999 745.04 49.9999H736.496V27.6639ZM744.24 47.6639C745.477 47.6639 746.448 47.3865 747.152 46.8319C747.856 46.2772 748.208 45.4239 748.208 44.2719V42.9599C748.208 41.8292 747.856 40.9865 747.152 40.4319C746.448 39.8559 745.477 39.5679 744.24 39.5679H739.184V47.6639H744.24ZM743.792 37.3599C744.923 37.3599 745.808 37.1145 746.448 36.6239C747.088 36.1119 747.408 35.3439 747.408 34.3199V33.0719C747.408 32.0479 747.088 31.2799 746.448 30.7679C745.808 30.2559 744.923 29.9999 743.792 29.9999H739.184V37.3599H743.792Z" fill="white"/>
<path d="M762.564 50.3839C760.558 50.3839 758.915 50.0212 757.635 49.2959C756.355 48.5492 755.3 47.5999 754.468 46.4479L756.419 44.8479C757.294 45.9359 758.212 46.7465 759.172 47.2799C760.153 47.8132 761.316 48.0799 762.66 48.0799C764.281 48.0799 765.518 47.7065 766.372 46.9599C767.225 46.2132 767.652 45.1679 767.652 43.8239C767.652 42.7359 767.342 41.8932 766.724 41.2959C766.105 40.6772 765.028 40.2399 763.492 39.9839L760.996 39.5679C759.908 39.3759 758.99 39.0879 758.244 38.7039C757.518 38.3199 756.932 37.8612 756.484 37.3279C756.036 36.7732 755.715 36.1759 755.523 35.5359C755.331 34.8745 755.236 34.1919 755.236 33.4879C755.236 31.4399 755.908 29.8932 757.252 28.8479C758.596 27.8025 760.409 27.2799 762.692 27.2799C764.484 27.2799 765.988 27.5785 767.204 28.1759C768.441 28.7732 769.433 29.6159 770.18 30.7039L768.292 32.3359C767.673 31.5252 766.926 30.8639 766.052 30.3519C765.177 29.8399 764.046 29.5839 762.66 29.5839C761.145 29.5839 759.982 29.9039 759.172 30.5439C758.361 31.1839 757.956 32.1439 757.956 33.4239C757.956 34.4265 758.254 35.2479 758.852 35.8879C759.47 36.5065 760.569 36.9545 762.148 37.2319L764.548 37.6479C765.636 37.8399 766.553 38.1279 767.299 38.5119C768.046 38.8959 768.643 39.3545 769.091 39.8879C769.561 40.4212 769.891 41.0185 770.083 41.6799C770.275 42.3412 770.372 43.0345 770.372 43.7599C770.372 45.8292 769.689 47.4505 768.324 48.6239C766.98 49.7972 765.06 50.3839 762.564 50.3839Z" fill="white"/>
<path d="M775.063 49.9999V47.8559H780.631V29.8079H775.063V27.6639H788.887V29.8079H783.319V47.8559H788.887V49.9999H775.063Z" fill="white"/>
<path d="M802.666 29.9999V49.9999H799.978V29.9999H792.522V27.6639H810.122V29.9999H802.666Z" fill="white"/>
<path d="M813.95 49.9999V27.6639H827.71V29.9999H816.638V37.5199H827.326V39.8559H816.638V47.6639H827.71V49.9999H813.95Z" fill="white"/>
<path d="M858.245 54.4159V25.6799H860.485V54.4159H858.245Z" fill="white"/>
<path d="M6.85899 80.0159V73.3279H0.458984V71.1519H6.85899V64.4639H9.29099V71.1519H15.691V73.3279H9.29099V80.0159H6.85899Z" fill="white"/>
<path d="M22.7825 73.6159V70.9279H32.0625V73.6159H22.7825Z" fill="white"/>
<path d="M42.13 73.6159V70.9279H51.41V73.6159H42.13Z" fill="white"/>
<path d="M61.4775 73.6159V70.9279H70.7575V73.6159H61.4775Z" fill="white"/>
<path d="M80.825 73.6159V70.9279H90.105V73.6159H80.825Z" fill="white"/>
<path d="M100.172 73.6159V70.9279H109.452V73.6159H100.172Z" fill="white"/>
<path d="M119.52 73.6159V70.9279H128.8V73.6159H119.52Z" fill="white"/>
<path d="M138.867 73.6159V70.9279H148.147V73.6159H138.867Z" fill="white"/>
<path d="M158.215 73.6159V70.9279H167.495V73.6159H158.215Z" fill="white"/>
<path d="M177.562 73.6159V70.9279H186.842V73.6159H177.562Z" fill="white"/>
<path d="M200.334 80.0159V73.3279H193.934V71.1519H200.334V64.4639H202.766V71.1519H209.166V73.3279H202.766V80.0159H200.334Z" fill="white"/>
<path d="M374.461 80.0159V73.3279H368.062V71.1519H374.461V64.4639H376.893V71.1519H383.294V73.3279H376.893V80.0159H374.461Z" fill="white"/>
<path d="M390.385 73.6159V70.9279H399.665V73.6159H390.385Z" fill="white"/>
<path d="M409.733 73.6159V70.9279H419.013V73.6159H409.733Z" fill="white"/>
<path d="M429.08 73.6159V70.9279H438.36V73.6159H429.08Z" fill="white"/>
<path d="M448.428 73.6159V70.9279H457.708V73.6159H448.428Z" fill="white"/>
<path d="M467.775 73.6159V70.9279H477.055V73.6159H467.775Z" fill="white"/>
<path d="M490.546 80.0159V73.3279H484.146V71.1519H490.546V64.4639H492.978V71.1519H499.378V73.3279H492.978V80.0159H490.546Z" fill="white"/>
<path d="M664.674 80.0159V73.3279H658.274V71.1519H664.674V64.4639H667.106V71.1519H673.506V73.3279H667.106V80.0159H664.674Z" fill="white"/>
<path d="M680.598 73.6159V70.9279H689.878V73.6159H680.598Z" fill="white"/>
<path d="M699.945 73.6159V70.9279H709.225V73.6159H699.945Z" fill="white"/>
<path d="M719.293 73.6159V70.9279H728.573V73.6159H719.293Z" fill="white"/>
<path d="M738.64 73.6159V70.9279H747.92V73.6159H738.64Z" fill="white"/>
<path d="M757.988 73.6159V70.9279H767.268V73.6159H757.988Z" fill="white"/>
<path d="M777.335 73.6159V70.9279H786.615V73.6159H777.335Z" fill="white"/>
<path d="M796.682 73.6159V70.9279H805.962V73.6159H796.682Z" fill="white"/>
<path d="M816.03 73.6159V70.9279H825.31V73.6159H816.03Z" fill="white"/>
<path d="M835.378 73.6159V70.9279H844.658V73.6159H835.378Z" fill="white"/>
<path d="M858.149 80.0159V73.3279H851.749V71.1519H858.149V64.4639H860.581V71.1519H866.981V73.3279H860.581V80.0159H858.149Z" fill="white"/>
<line x1="465.374" y1="18.9192" x2="401.687" y2="51.7475" stroke="#FF0000" stroke-width="3"/>
<line y1="-1.5" x2="71.6499" y2="-1.5" transform="matrix(0.888861 0.458176 0.458176 -0.888861 402.313 17.5859)" stroke="#FF0000" stroke-width="3"/>
</svg>
