<svg xmlns="http://www.w3.org/2000/svg" version="1.1" xmlns:xlink="http://www.w3.org/1999/xlink" width="512" height="512" x="0" y="0" viewBox="0 0 64 64" style="enable-background:new 0 0 512 512" xml:space="preserve" class=""><g><path d="M29 53v2c3.859 0 7-3.141 7-7s-3.141-7-7-7v2c2.757 0 5 2.243 5 5s-2.243 5-5 5z" fill="#ffffff" opacity="1" data-original="#000000" class=""></path><path d="M58 1H18c-2.757 0-5 2.243-5 5v31.785a28.736 28.736 0 0 1-9.195 2.158A3 3 0 0 0 1 42.93v10.14a2.998 2.998 0 0 0 2.805 2.986 28.73 28.73 0 0 1 12.602 3.839l4.355 2.54A4.148 4.148 0 0 0 27 58.852V37.148a4.153 4.153 0 0 0-6.239-3.584l-4.354 2.54c-.461.269-.931.523-1.406.766V19h3.382L21 24.236 24.618 17h5L32 12.236 34.382 17h8.312l2.438-6.502L47.382 15H61v25c0 1.654-1.346 3-3 3H38.786A11.047 11.047 0 0 0 33 37.764v-6.948A2.996 2.996 0 0 0 35 28v-2a2.996 2.996 0 0 0-2-2.816V19h-2v4.184A2.996 2.996 0 0 0 29 26v2c0 1.302.839 2.402 2 2.816v6.375c-.65-.12-1.316-.191-2-.191v2c4.963 0 9 4.037 9 9s-4.037 9-9 9v2c6.065 0 11-4.935 11-11 0-1.041-.155-2.045-.426-3H58c2.757 0 5-2.243 5-5V6c0-2.757-2.243-5-5-5zM3 53.07V42.93c0-.522.409-.957.932-.99A30.458 30.458 0 0 0 9 41.18v13.641a30.458 30.458 0 0 0-5.068-.76A.996.996 0 0 1 3 53.07zm22-15.922v21.703a2.144 2.144 0 0 1-2 2.133v-25.97c1.114.079 2 1.001 2 2.134zm-7.586.685L21 35.741v24.518l-3.586-2.092A30.587 30.587 0 0 0 11 55.361V40.639a30.587 30.587 0 0 0 6.414-2.806zM31 26a1 1 0 0 1 2 0v2a1 1 0 0 1-2 0v-2zm17.618-13-3.749-7.498L41.307 15h-5.688L32 7.764 28.382 15h-5L21 19.764 19.618 17H15V6c0-1.654 1.346-3 3-3h40c1.654 0 3 1.346 3 3v7H48.618z" fill="#ffffff" opacity="1" data-original="#000000" class=""></path><path d="M55 19v10.184A2.996 2.996 0 0 0 53 32v2c0 1.302.839 2.402 2 2.816V39h2v-2.184A2.996 2.996 0 0 0 59 34v-2a2.996 2.996 0 0 0-2-2.816V19h-2zm2 15a1 1 0 0 1-2 0v-2a1 1 0 0 1 2 0v2zM47 19v8.184A2.996 2.996 0 0 0 45 30v2c0 1.302.839 2.402 2 2.816V39h2v-4.184A2.996 2.996 0 0 0 51 32v-2a2.996 2.996 0 0 0-2-2.816V19h-2zm2 13a1 1 0 0 1-2 0v-2a1 1 0 0 1 2 0v2zM39 19v6.184A2.996 2.996 0 0 0 37 28v2c0 1.302.839 2.402 2 2.816V39h2v-6.184A2.996 2.996 0 0 0 43 30v-2a2.996 2.996 0 0 0-2-2.816V19h-2zm2 11a1 1 0 0 1-2 0v-2a1 1 0 0 1 2 0v2z" fill="#ffffff" opacity="1" data-original="#000000" class=""></path></g></svg>