<svg xmlns="http://www.w3.org/2000/svg" version="1.1" xmlns:xlink="http://www.w3.org/1999/xlink" width="512" height="512" x="0" y="0" viewBox="0 0 512 512" style="enable-background:new 0 0 512 512" xml:space="preserve" class=""><g><path d="M290.26 144.519v14.12c0 7.67-6.22 13.88-13.89 13.88h-73.21c-7.67 0-13.88-6.21-13.88-13.88v-93.77c0-7.67 6.21-13.88 13.88-13.88h18.58M322.72 61.839v68.8c0 7.67-6.21 13.88-13.88 13.88h-18.58v-54.68l-28.74-38.85h-39.78V36.87c0-7.67 6.22-13.88 13.89-13.88h58.36l28.73 38.849zM216.277 77.989h0M263.257 145.522h-46.98M263.257 118.344h-46.98M142.607 430.708v45.508c0 7.066-5.728 12.794-12.794 12.794H20.294c-7.066 0-12.794-5.728-12.794-12.794V349.335c0-6.975 3.6-13.457 9.522-17.143l58.031-36.121 58.031 36.121a20.192 20.192 0 0 1 9.522 17.143v46.237M310.759 489.011H201.241c-7.066 0-12.794-5.728-12.794-12.794V350.352a22.024 22.024 0 0 1 10.385-18.697L256 296.071l58.031 36.121a20.192 20.192 0 0 1 9.522 17.143v126.882c0 7.065-5.728 12.794-12.794 12.794zM436.947 296.071l58.031 36.121a20.192 20.192 0 0 1 9.522 17.143v126.882c0 7.066-5.728 12.794-12.794 12.794H382.188c-7.066 0-12.794-5.728-12.794-12.794V349.335c0-6.975 3.6-13.457 9.522-17.143l28.295-17.612" style="stroke-width:15;stroke-linecap:round;stroke-linejoin:round;stroke-miterlimit:10;" fill="none" stroke="#ffffff" stroke-width="15" stroke-linecap="round" stroke-linejoin="round" stroke-miterlimit="10" data-original="#000000" opacity="1" class=""></path><path d="M96.616 430.708H53.491c-6.83 0-12.367-5.537-12.367-12.367v-43.125c0-6.83 5.537-12.367 12.367-12.367h43.125c6.83 0 12.367 5.537 12.367 12.367v43.125c0 6.831-5.537 12.367-12.367 12.367zM256 433.597h0c-18.739 0-33.929-15.191-33.929-33.929v0c0-18.739 15.191-33.929 33.929-33.929h0c18.739 0 33.929 15.191 33.929 33.929v0c0 18.738-15.19 33.929-33.929 33.929zM458.805 430.708h-43.717c-7.928 0-14.354-6.81-14.354-15.211v0c0-3.031.855-5.993 2.454-8.507l24.934-39.169c4.22-6.63 13.43-6.63 17.65 0l24.934 39.169a15.858 15.858 0 0 1 2.454 8.507v0c-.001 8.401-6.427 15.211-14.355 15.211zM58.976 458.28h32.155M240.197 458.28h32.155M419.395 458.28h32.154M75.053 296.071V234.96h361.894v61.111M256 296.071V172.522" style="stroke-width:15;stroke-linecap:round;stroke-linejoin:round;stroke-miterlimit:10;" fill="none" stroke="#ffffff" stroke-width="15" stroke-linecap="round" stroke-linejoin="round" stroke-miterlimit="10" data-original="#000000" opacity="1" class=""></path></g></svg>