<svg xmlns="http://www.w3.org/2000/svg" version="1.1" xmlns:xlink="http://www.w3.org/1999/xlink" width="512" height="512" x="0" y="0" viewBox="0 0 60 60" style="enable-background:new 0 0 512 512" xml:space="preserve" class=""><g><path d="M4 46h26v9a5.006 5.006 0 0 0 5 5h20a5.006 5.006 0 0 0 5-5V35a5.006 5.006 0 0 0-5-5h-1V4a4 4 0 0 0-4-4H4a4 4 0 0 0-4 4v38a4 4 0 0 0 4 4Zm54-11v20a3 3 0 0 1-3 3H35a3 3 0 0 1-3-3V35a3 3 0 0 1 3-3h20a3 3 0 0 1 3 3Zm-23-5a5.006 5.006 0 0 0-5 5v9H4a2 2 0 0 1-2-2v-4.483L21.972 18.4a1.435 1.435 0 0 1 2.011.015l6.394 6.4-6.764 6.474A1 1 0 1 0 25 32.731l7.49-7.169.015-.01 7.471-7.15a1.435 1.435 0 0 1 2.011.015L52 28.425V30ZM4 2h46a2 2 0 0 1 2 2v21.6L43.394 17a3.426 3.426 0 0 0-4.806-.041l-6.763 6.473L25.394 17a3.427 3.427 0 0 0-4.806-.041L2 34.748V4a2 2 0 0 1 2-2Z" fill="#ffffff" opacity="1" data-original="#000000" class=""></path><path d="M34 38a1 1 0 0 0 1 1h1a2 2 0 0 0 2 2h2a2 2 0 0 0 2-2h13a1 1 0 0 0 0-2H42a2 2 0 0 0-2-2h-2a2 2 0 0 0-2 2h-1a1 1 0 0 0-1 1Zm4-1h2v2h-2ZM55 44h-3a2 2 0 0 0-2-2h-2a2 2 0 0 0-2 2H35a1 1 0 0 0 0 2h11a2 2 0 0 0 2 2h2a2 2 0 0 0 2-2h3a1 1 0 0 0 0-2Zm-7 2v-2h2v2ZM55 51h-9a2 2 0 0 0-2-2h-2a2 2 0 0 0-2 2h-5a1 1 0 0 0 0 2h5a2 2 0 0 0 2 2h2a2 2 0 0 0 2-2h9a1 1 0 0 0 0-2Zm-13 2v-2h2v2ZM11 17a6 6 0 1 0-6-6 6.006 6.006 0 0 0 6 6Zm0-10a4 4 0 1 1-4 4 4 4 0 0 1 4-4ZM31.5 14a3.547 3.547 0 0 0 .76-.084 4 4 0 0 0 5.48 0 3.547 3.547 0 0 0 .76.084 3.5 3.5 0 0 0 .378-6.979 4 4 0 0 0-7.749 0A3.5 3.5 0 0 0 31.5 14Zm0-5a1.738 1.738 0 0 1 .317.033 1.018 1.018 0 0 0 .822-.239A1.051 1.051 0 0 0 33 8a2 2 0 1 1 4 .05 1 1 0 0 0 1.183.983A1.738 1.738 0 0 1 38.5 9a1.5 1.5 0 0 1 0 3 1.563 1.563 0 0 1-.645-.145 1 1 0 0 0-1.236.32 2 2 0 0 1-3.238 0 1 1 0 0 0-1.236-.32A1.563 1.563 0 0 1 31.5 12a1.5 1.5 0 0 1 0-3Z" fill="#ffffff" opacity="1" data-original="#000000" class=""></path></g></svg>