<svg xmlns="http://www.w3.org/2000/svg" version="1.1" xmlns:xlink="http://www.w3.org/1999/xlink" width="512" height="512" x="0" y="0" viewBox="0 0 48 48" style="enable-background:new 0 0 512 512" xml:space="preserve" class=""><g><path d="M17.007 31a13.939 13.939 0 0 1-6.031-1.363 1.078 1.078 0 0 0-.748-.087l-3.508.974a2 2 0 0 1-2.492-2.34l.742-3.527a1.068 1.068 0 0 0-.139-.746A13.936 13.936 0 0 1 3.1 15.336 14.076 14.076 0 0 1 15.221 3.11a14 14 0 0 1 3.9 27.732 14.382 14.382 0 0 1-2.114.158zm-6.533-3.483a3.172 3.172 0 0 1 1.365.316A12 12 0 1 0 15.467 5.1a11.991 11.991 0 0 0-8.9 17.825 3.073 3.073 0 0 1 .358 2.148l-.74 3.527 3.507-.974a2.9 2.9 0 0 1 .782-.11z" fill="#ffffff" opacity="1" data-original="#000000" class=""></path><path d="M32 45a13.239 13.239 0 0 1-1.971-.148 12.951 12.951 0 0 1-10.922-11.178 13.356 13.356 0 0 1 .153-4.269 1 1 0 1 1 1.961.39 11.345 11.345 0 0 0-.129 3.631 10.995 10.995 0 0 0 15.59 8.523 3.077 3.077 0 0 1 2.134-.2l3.066.851-.648-3.077a3.085 3.085 0 0 1 .355-2.145 10.915 10.915 0 0 0 1.338-6.649A11.089 11.089 0 0 0 32.7 21.018a10.934 10.934 0 0 0-2.907.2 1 1 0 1 1-.4-1.959 12.94 12.94 0 0 1 3.435-.239A13.108 13.108 0 0 1 44.913 30.5a12.883 12.883 0 0 1-1.582 7.858 1.1 1.1 0 0 0-.14.752l.649 3.077a2 2 0 0 1-2.493 2.339l-3.067-.852a1.091 1.091 0 0 0-.745.087A12.945 12.945 0 0 1 32 45z" fill="#ffffff" opacity="1" data-original="#000000" class=""></path><path d="M37 38a1 1 0 0 1-.9-.553L32 29.236l-4.1 8.211a1 1 0 1 1-1.79-.894l5-10a1.042 1.042 0 0 1 1.79 0l5 10A1 1 0 0 1 37 38z" fill="#ffffff" opacity="1" data-original="#000000" class=""></path><path d="M28.479 35.152a1 1 0 0 1-.019-2l7.043-.13h.018a1 1 0 0 1 .019 2l-7.043.13zM17 23a6 6 0 1 1 6-6 6.006 6.006 0 0 1-6 6zm0-10a4 4 0 1 0 4 4 4 4 0 0 0-4-4z" fill="#ffffff" opacity="1" data-original="#000000" class=""></path><path d="M22 24a1 1 0 0 1-.707-.293l-4-4a1 1 0 0 1 1.414-1.414l4 4A1 1 0 0 1 22 24z" fill="#ffffff" opacity="1" data-original="#000000" class=""></path></g></svg>