<svg xmlns="http://www.w3.org/2000/svg" version="1.1" xmlns:xlink="http://www.w3.org/1999/xlink" width="512" height="512" x="0" y="0" viewBox="0 0 42 42" style="enable-background:new 0 0 512 512" xml:space="preserve" class=""><g><path fill="#ffffff" fill-rule="evenodd" d="M13.785 7.847a2 2 0 1 1-4 0 2 2 0 0 1 4 0zm-1.834 3.497.072-.004L13.755 20a2.999 2.999 0 0 0-.61 4.716l-2.611 6.092a3.486 3.486 0 0 0-.518-.117zm2.603-1.355c.245-.316.437-.676.563-1.065l13.07 2.8c.06.279.146.547.256.804l-6.707 4.643zm.705-2.569a3.5 3.5 0 1 0-6.224 2.593L3.997 18.41a2.5 2.5 0 1 0-.561 4.968l3.4 8.501a3.5 3.5 0 1 0 6.084 3.01l13.55-.967a2.5 2.5 0 0 0 4.556-2.04l5.511-5.51A3.001 3.001 0 1 0 37.4 20.7l-2.585-6.031a4.5 4.5 0 1 0-6.695-4.493zm-5.05 3.553-4.849 8.08a2.499 2.499 0 0 1-.44 3.997l3.16 7.902c.135-.06.275-.112.418-.154l1.97-19.706a3.472 3.472 0 0 1-.26-.119zm25.374-.212a3 3 0 1 1-6 0 3 3 0 0 1 6 0zm-2.537 4.476L30.16 30.628l5.228-5.227a3 3 0 0 1 .63-4.119l-2.613-6.096c-.118.022-.238.039-.36.051zm-20.131 18.15a3.478 3.478 0 0 0-.443-1.081l7.395-5.546 6.625 4.818c-.143.262-.24.552-.281.86zm-.657-2.796 2.19-5.11a3.003 3.003 0 0 0 2.792-.632l1.358.988zm7.595-5.696-1.766-1.285a2.993 2.993 0 0 0-.016-2.078l3.49-2.415 1.82 1.82a2.488 2.488 0 0 0-.44 1.642zm5.58-5.03c-.3 0-.588.053-.854.15l-1.765-1.766 6.44-4.46c.19.208.397.398.621.567l-3.713 5.618a2.497 2.497 0 0 0-.73-.108zm2.5 2.5c0-.582-.2-1.117-.534-1.542l3.816-5.774c.106.034.214.064.323.09l-2.823 15.057-1.873-5.766a2.497 2.497 0 0 0 1.09-2.064zm-4.39 1.638c.453.522 1.12.855 1.863.862l1.73 5.327-6.014-4.374zm-3.06-5.964-3.276 2.268a2.988 2.988 0 0 0-2.004-.714l-1.708-8.541zm8.206 15.732a1 1 0 1 0 0-2 1 1 0 0 0 0 2zm-13.425-9.679a1.5 1.5 0 1 0 0-3 1.5 1.5 0 0 0 0 3zM4.663 20.89a1 1 0 1 1-2 0 1 1 0 0 1 2 0zm20.77 2.477a1 1 0 1 0 0-2 1 1 0 0 0 0 2zm11.344 1.363a1.5 1.5 0 1 1 2.12-2.122 1.5 1.5 0 0 1-2.12 2.122zM9.499 36.152a2 2 0 1 0 0-4 2 2 0 0 0 0 4z" clip-rule="evenodd" opacity="1" data-original="#000000" class=""></path></g></svg>