<svg xmlns="http://www.w3.org/2000/svg" version="1.1" xmlns:xlink="http://www.w3.org/1999/xlink" width="512" height="512" x="0" y="0" viewBox="0 0 64 64" style="enable-background:new 0 0 512 512" xml:space="preserve" class=""><g><path d="M46.628 43.82a1 1 0 0 0-1 1v8.39a4.795 4.795 0 0 1-4.79 4.79h-27a4.795 4.795 0 0 1-4.79-4.79V10.79A4.796 4.796 0 0 1 13.838 6h20.215v5.571a6.007 6.007 0 0 0 6 6h5.575v7.03a1 1 0 0 0 2-.001v-8.03a1.001 1.001 0 0 0-.293-.708L35.768 4.305a1.062 1.062 0 0 0-.72-.305h-21.21a6.798 6.798 0 0 0-6.79 6.79v42.42a6.798 6.798 0 0 0 6.79 6.79h27a6.798 6.798 0 0 0 6.79-6.79v-8.39a1 1 0 0 0-1-1zM36.053 7.417l8.16 8.154h-4.16a4.005 4.005 0 0 1-4-4z" fill="#ffffff" opacity="1" data-original="#000000" class=""></path><path d="M43.338 24a1 1 0 0 0-1-1H22.69a1 1 0 1 0 0 2h19.65a1 1 0 0 0 1-1zM40.228 32a1 1 0 0 0-1-1h-16.54a1 1 0 0 0 0 2h16.54a1 1 0 0 0 1-1zM22.688 39a1 1 0 0 0 0 2h8.54a1 1 0 0 0 0-2zM49.854 25.611c-.303.329-19.445 19.426-20.4 20.4a1.004 1.004 0 0 0-.22.331l-3.417 7.864a1.007 1.007 0 0 0 1.315 1.315l7.864-3.417a1.007 1.007 0 0 0 .33-.22L53.71 33.502c1.246-1.29 3.401-2.911 3.234-4.952a4.174 4.174 0 0 0-7.089-2.939zM28.662 52.676l1.83-4.212 2.382 2.38zm5.958-2.914-3.045-3.044 16.97-16.97 3.045 3.044zM54.313 30.07l-1.309 1.308-3.044-3.044 1.308-1.309a2.153 2.153 0 0 1 3.045 3.045zM14.338 25a.998.998 0 0 0 .604-.203l4-3.032a1 1 0 0 0-1.208-1.594l-3.531 2.677-1.398-.617a1 1 0 0 0-.807 1.83 15.368 15.368 0 0 0 2.34.939zM11.998 32.062a15.368 15.368 0 0 0 2.34.938.998.998 0 0 0 .604-.203l4-3.032a1 1 0 0 0-1.208-1.594l-3.531 2.677-1.398-.617a1 1 0 0 0-.807 1.83zM11.998 40.062a15.367 15.367 0 0 0 2.34.938 1.001 1.001 0 0 0 .604-.203l4-3.032a1 1 0 0 0-1.208-1.594l-3.531 2.677-1.398-.617a1 1 0 0 0-.807 1.83z" fill="#ffffff" opacity="1" data-original="#000000" class=""></path></g></svg>