<svg xmlns="http://www.w3.org/2000/svg" version="1.1" xmlns:xlink="http://www.w3.org/1999/xlink" width="512" height="512" x="0" y="0" viewBox="0 0 512 512" style="enable-background:new 0 0 512 512" xml:space="preserve" class=""><g><path d="M342.495 331.553a8.28 8.28 0 0 0-3.914 7.028v115.613a8.28 8.28 0 0 0 3.914 7.028 8.28 8.28 0 0 0 8.035.363l115.613-57.806c2.799-1.404 4.567-4.261 4.567-7.391s-1.767-5.987-4.567-7.391L350.53 331.19a8.264 8.264 0 0 0-8.035.363zm12.602 20.389 88.89 44.445-88.89 44.445z" fill="#ffffff" opacity="1" data-original="#000000" class=""></path><path d="M487.226 231.226c13.659 0 24.774-11.115 24.774-24.774V57.806c0-13.659-11.115-24.774-24.774-24.774H429.42v-8.258C429.419 11.115 418.304 0 404.645 0H57.806C44.148 0 33.032 11.115 33.032 24.774V297.29h-8.258C11.115 297.29 0 308.406 0 322.065v165.161C0 500.885 11.115 512 24.774 512h198.194c13.659 0 24.774-11.115 24.774-24.774v-90.839h33.032c0 63.752 51.861 115.613 115.613 115.613S512 460.139 512 396.387c0-52.265-34.89-96.487-82.581-110.741v-54.421h57.807zm8.258-173.42v148.645c0 4.558-3.708 8.258-8.258 8.258h-70.194l-22.305 29.737c-3.097 4.129-10.108 4.129-13.205 0l-22.297-29.737h-70.194c-4.55 0-8.258-3.7-8.258-8.258V57.806c0-4.558 3.708-8.258 8.258-8.258h198.194c4.551 0 8.259 3.7 8.259 8.258zM57.806 16.516h346.839c4.55 0 8.258 3.7 8.258 8.258v8.258H289.032c-13.659 0-24.774 11.115-24.774 24.774v8.258H49.548v-41.29c0-4.558 3.708-8.258 8.258-8.258zm-8.258 66.065h82.581v214.71H49.548zm181.678 404.645c0 4.558-3.708 8.258-8.258 8.258H24.774c-4.55 0-8.258-3.7-8.258-8.258V322.065c0-4.558 3.708-8.258 8.258-8.258h198.194c4.55 0 8.258 3.7 8.258 8.258zm264.258-90.839c0 54.644-44.453 99.097-99.097 99.097s-99.097-44.453-99.097-99.097 44.453-99.097 99.097-99.097 99.097 44.453 99.097 99.097zm-99.097-115.613c-58.129 0-106.24 43.165-114.292 99.097h-34.354v-57.806c0-13.659-11.115-24.774-24.774-24.774h-74.323V82.581h115.613v123.871c0 13.659 11.115 24.774 24.774 24.774h61.935l17.342 23.131c4.649 6.202 12.065 9.901 19.819 9.901 7.763 0 15.17-3.7 19.811-9.901l4.963-6.615v34.354c-5.407-.785-10.89-1.322-16.514-1.322z" fill="#ffffff" opacity="1" data-original="#000000" class=""></path><path d="M298.248 177.284a8.26 8.26 0 0 0 7.308 4.393 8.212 8.212 0 0 0 3.857-.958l74.124-39.242 30.34 16.062c-.586 2.453-.974 4.988-.974 7.622 0 18.217 14.815 33.032 33.032 33.032s33.032-14.815 33.032-33.032-14.815-33.032-33.032-33.032c-9.637 0-18.25 4.22-24.295 10.826l-20.455-10.826 20.455-10.826c6.045 6.606 14.658 10.826 24.295 10.826 18.217 0 33.032-14.815 33.032-33.032s-14.815-33.032-33.032-33.032-33.032 14.815-33.032 33.032c0 2.634.388 5.17.974 7.622l-30.34 16.062-74.124-39.242c-4.03-2.147-9.026-.586-11.165 3.435a8.266 8.266 0 0 0 3.435 11.165l64.206 33.99-64.206 33.99a8.266 8.266 0 0 0-3.435 11.165zm147.687-28.639c9.109 0 16.516 7.407 16.516 16.516s-7.407 16.516-16.516 16.516-16.516-7.407-16.516-16.516 7.408-16.516 16.516-16.516zm0-66.064c9.109 0 16.516 7.407 16.516 16.516s-7.407 16.516-16.516 16.516-16.516-7.407-16.516-16.516 7.408-16.516 16.516-16.516zM132.129 33.032h16.516v16.516h-16.516zM66.065 33.032h16.516v16.516H66.065zM99.097 33.032h16.516v16.516H99.097zM66.065 414.423v-84.1H49.548v84.1c-9.588 3.419-16.516 12.503-16.516 23.255s6.929 19.836 16.516 23.255v18.036h16.516v-18.036c9.588-3.419 16.516-12.503 16.516-23.255s-6.928-19.836-16.515-23.255zm-8.259 31.512c-4.55 0-8.258-3.7-8.258-8.258s3.708-8.258 8.258-8.258 8.258 3.7 8.258 8.258-3.707 8.258-8.258 8.258zM132.129 381.39v-51.068h-16.516v51.068c-9.588 3.419-16.516 12.503-16.516 23.255s6.929 19.836 16.516 23.255v51.068h16.516V427.9c9.588-3.419 16.516-12.503 16.516-23.255s-6.928-19.836-16.516-23.255zm-8.258 31.513c-4.55 0-8.258-3.7-8.258-8.258s3.708-8.258 8.258-8.258 8.258 3.7 8.258 8.258-3.708 8.258-8.258 8.258zM198.194 364.874v-34.552h-16.516v34.552c-9.588 3.419-16.516 12.503-16.516 23.255s6.929 19.836 16.516 23.255v67.584h16.516v-67.584c9.588-3.419 16.516-12.503 16.516-23.255s-6.929-19.836-16.516-23.255zm-8.259 31.513c-4.55 0-8.258-3.7-8.258-8.258s3.708-8.258 8.258-8.258 8.258 3.7 8.258 8.258-3.707 8.258-8.258 8.258zM66.065 99.097h49.548v16.516H66.065zM66.065 132.129h49.548v16.516H66.065zM66.065 165.161h49.548v16.516H66.065zM66.065 198.194h49.548v16.516H66.065zM66.065 231.226h49.548v16.516H66.065zM66.065 264.258h49.548v16.516H66.065zM165.161 181.677h82.581v-82.58h-82.581zm16.516-66.064h49.548v49.548h-49.548zM165.161 280.774h82.581v-82.581h-82.581zm16.516-66.064h49.548v49.548h-49.548z" fill="#ffffff" opacity="1" data-original="#000000" class=""></path></g></svg>