<svg width="37" height="37" viewBox="0 0 37 37" fill="none" xmlns="http://www.w3.org/2000/svg">
<mask id="mask0_332_1309" style="mask-type:luminance" maskUnits="userSpaceOnUse" x="0" y="0" width="37" height="37">
<path d="M36.2509 0.906311H0.430664V36.7266H36.2509V0.906311Z" fill="white"/>
</mask>
<g mask="url(#mask0_332_1309)">
<path d="M27.7667 9.38995L19.2831 8.44734L8.91398 9.38995L7.97119 18.8164L8.9138 28.2429L18.3403 29.4212L27.7667 28.2429L28.7094 18.5809L27.7667 9.38995Z" fill="white"/>
<path d="M12.7815 24.0151C12.0769 23.5391 11.5891 22.8439 11.3228 21.9248L12.9583 21.2508C13.1068 21.8164 13.3659 22.2547 13.736 22.5658C14.1037 22.8769 14.5514 23.03 15.0746 23.03C15.6095 23.03 16.0691 22.8674 16.4531 22.5422C16.8371 22.2169 17.0305 21.8021 17.0305 21.3003C17.0305 20.7866 16.8278 20.367 16.4225 20.0419C16.0172 19.7168 15.5082 19.554 14.9001 19.554H13.9552V17.9351H14.8034C15.3266 17.9351 15.7673 17.7938 16.1255 17.511C16.4837 17.2282 16.6628 16.8417 16.6628 16.3492C16.6628 15.9109 16.5025 15.562 16.1821 15.3006C15.8617 15.0391 15.4562 14.9071 14.9637 14.9071C14.483 14.9071 14.1012 15.0344 13.8184 15.2912C13.5356 15.5481 13.3305 15.8638 13.201 16.2362L11.5821 15.5622C11.7965 14.9542 12.1901 14.4169 12.7674 13.9526C13.3448 13.4884 14.0823 13.255 14.9779 13.255C15.64 13.255 16.2362 13.3824 16.7642 13.6392C17.292 13.896 17.7068 14.2519 18.0061 14.7043C18.3054 15.1591 18.4539 15.6682 18.4539 16.2337C18.4539 16.8111 18.3149 17.2988 18.0367 17.6994C17.7586 18.1001 17.4169 18.4063 17.0116 18.6209V18.7174C17.5465 18.9413 17.9825 19.283 18.3265 19.7426C18.6682 20.2022 18.8402 20.7513 18.8402 21.3923C18.8402 22.0333 18.6776 22.6059 18.3523 23.1079C18.0271 23.6098 17.577 24.0057 17.0067 24.2931C16.4341 24.5806 15.7908 24.7268 15.0767 24.7268C14.2496 24.7292 13.4861 24.491 12.7815 24.0151Z" fill="#1A73E8"/>
<path d="M22.8189 15.8992L21.0326 17.1977L20.1348 15.8357L23.3562 13.512H24.5911V24.4725H22.8189V15.8992Z" fill="#1A73E8"/>
<path d="M27.7676 36.7263L36.2514 28.2427L32.0096 26.3574L27.7676 28.2427L25.8826 32.4845L27.7676 36.7263Z" fill="#EA4335"/>
<path d="M7.0293 32.4846L8.91452 36.7264H27.7673V28.2426H8.91452L7.0293 32.4846Z" fill="#34A853"/>
<path d="M3.2585 0.906311C1.69619 0.906311 0.430664 2.17184 0.430664 3.73414V28.2428L4.6725 30.128L8.91434 28.2428V9.38999H27.7671L29.6524 5.14815L27.7674 0.906311H3.2585Z" fill="#4285F4"/>
<path d="M0.430664 28.2426V33.8986C0.430664 35.461 1.69619 36.7264 3.2585 36.7264H8.91434V28.2426H0.430664Z" fill="#188038"/>
<path d="M27.7681 9.38974V28.2425H36.2519V9.38974L32.0101 7.50452L27.7681 9.38974Z" fill="#FBBC04"/>
<path d="M36.2519 9.38999V3.73414C36.2519 2.17166 34.9863 0.906311 33.4241 0.906311H27.7681V9.38999H36.2519Z" fill="#1967D2"/>
</g>
</svg>
