<svg width="42" height="37" viewBox="0 0 42 37" fill="none" xmlns="http://www.w3.org/2000/svg">
<mask id="mask0_307_1483" style="mask-type:luminance" maskUnits="userSpaceOnUse" x="0" y="0" width="42" height="37">
<path d="M41.2968 0.574066H0.881836V36.7265H41.2968V0.574066Z" fill="white"/>
</mask>
<g mask="url(#mask0_307_1483)">
<path d="M3.93726 31.5219L5.71964 34.6003C6.09 35.2485 6.62234 35.7578 7.24735 36.1282C9.03759 33.8558 10.2835 32.1121 10.9857 30.8969C11.6982 29.6637 12.5739 27.7347 13.6129 25.11C10.8129 24.7415 8.69107 24.5574 7.24751 24.5574C5.86187 24.5574 3.74009 24.7415 0.881836 25.11C0.881836 25.8277 1.06702 26.5451 1.43738 27.1933L3.93726 31.5219Z" fill="#0066DA"/>
<path d="M34.9319 36.1282C35.5571 35.7578 36.0894 35.2485 36.4595 34.6005L37.2004 33.3275L40.742 27.1933C41.1056 26.5593 41.2969 25.841 41.2974 25.11C38.4226 24.7415 36.3047 24.5574 34.9436 24.5574C33.4808 24.5574 31.3627 24.7415 28.5896 25.11C29.6163 27.7492 30.4804 29.6781 31.1822 30.8969C31.8899 32.1265 33.1398 33.8702 34.9319 36.1282Z" fill="#EA4335"/>
<path d="M21.0889 12.1477C23.1602 9.64626 24.5876 7.71724 25.3712 6.36098C26.0021 5.26882 26.6967 3.52498 27.4545 1.12961C26.8293 0.759248 26.1119 0.574066 25.3712 0.574066H16.8066C16.0659 0.574066 15.3486 0.782456 14.7234 1.12961C15.6873 3.87688 16.5054 5.83212 17.1773 6.99514C17.9199 8.28052 19.2238 9.998 21.0889 12.1477Z" fill="#00832D"/>
<path d="M28.5662 25.1104H13.6129L7.24756 36.1285C7.87241 36.4988 8.58994 36.6841 9.33066 36.6841H32.8483C33.5892 36.6841 34.3068 36.4758 34.9315 36.1285L28.5662 25.1104Z" fill="#2684FC"/>
<path d="M21.0894 12.1476L14.7241 1.12965C14.0989 1.50001 13.5666 2.00914 13.1962 2.65736L1.43738 23.027C1.07383 23.6611 0.882316 24.3791 0.881836 25.1101H13.6129L21.0894 12.1476Z" fill="#00AC47"/>
<path d="M34.8624 12.8422L28.9829 2.65736C28.6128 2.00914 28.0802 1.50001 27.4552 1.12965L21.0898 12.1478L28.5663 25.1103H41.2743C41.2743 24.3927 41.089 23.6753 40.7187 23.0271L34.8624 12.8422Z" fill="#FFBA00"/>
</g>
</svg>
