<svg width="45" height="44" viewBox="0 0 45 44" fill="none" xmlns="http://www.w3.org/2000/svg">
<path d="M44.5388 8.85913L31.4377 0.655457L22.34 8.0511L35.9379 15.8849L44.5388 8.85913ZM0.141357 23.1048L13.6246 30.9264L22.34 24.3083L9.42532 16.1742L0.141357 23.1048ZM13.6246 0.655457L0.141357 9.25583L9.42532 16.1742L22.34 8.0511L13.6246 0.655457ZM22.34 24.3083L31.2305 30.9264L44.5388 23.1048L35.9379 15.8849L22.34 24.3083Z" fill="#1E88E5"/>
<path d="M31.1039 32.6965L29.7351 33.5553L28.4615 32.5444L21.3315 26.8903L14.3614 32.5293L13.0926 33.5578L11.7117 32.7041L8.21411 30.5423V33.9024L21.3172 43.0348L34.4489 33.9729V30.6027L31.1039 32.6965Z" fill="#1E88E5"/>
</svg>
