<svg width="41" height="43" viewBox="0 0 41 43" fill="none" xmlns="http://www.w3.org/2000/svg">
<path fill-rule="evenodd" clip-rule="evenodd" d="M7.55037 7.52037C8.85907 8.5837 9.34983 8.50296 11.8079 8.33831L34.9779 6.94677C35.4697 6.94677 35.0607 6.45706 34.8972 6.37527L31.0497 3.59319C30.3125 3.02064 29.33 2.36523 27.4475 2.52881L5.01263 4.16469C4.19469 4.24542 4.03109 4.65439 4.35722 4.98263L7.55037 7.52037Z" fill="white"/>
<path fill-rule="evenodd" clip-rule="evenodd" d="M8.94238 12.9201V37.2989C8.94238 38.6088 9.59675 39.0996 11.0712 39.0188L36.5347 37.5453C38.009 37.4646 38.1736 36.5628 38.1736 35.4985V11.2831C38.1736 10.2208 37.7647 9.64722 36.8629 9.72904L10.2532 11.2831C9.27062 11.3649 8.94238 11.8567 8.94238 12.9201Z" fill="white"/>
<path fill-rule="evenodd" clip-rule="evenodd" d="M7.5523 7.52077C8.86102 8.5841 9.35178 8.50337 11.8098 8.33871L34.9799 6.94714C35.4717 6.94714 35.0628 6.45746 34.8992 6.37565L31.0517 3.59359C30.3146 3.02105 29.3318 2.36563 27.4496 2.52921L5.01456 4.16509C4.19662 4.24583 4.03304 4.6548 4.35914 4.98303L7.5523 7.52077ZM8.94281 12.9202V37.299C8.94281 38.609 9.59715 39.0997 11.0716 39.0189L36.535 37.5457C38.0095 37.465 38.1742 36.5629 38.1742 35.4986V11.2833C38.1742 10.221 37.7652 9.64744 36.8632 9.72923L10.2536 11.2833C9.27104 11.3651 8.94281 11.8569 8.94281 12.9202ZM34.0803 14.2279C34.2438 14.9651 34.0803 15.7013 33.3418 15.7841L32.115 16.0284V34.0264C31.0496 34.5989 30.0668 34.9261 29.2489 34.9261C27.9382 34.9261 27.61 34.5171 26.6284 33.2901L18.603 20.6918V32.8811L21.1429 33.4539C21.1429 33.4539 21.1429 34.9261 19.0938 34.9261L13.4457 35.2532C13.2821 34.9261 13.4457 34.1082 14.0183 33.9446L15.4927 33.5357V17.42L13.4457 17.2564C13.2811 16.5192 13.6901 15.4569 14.8373 15.3741L20.8964 14.9651L29.2479 27.7282V16.4374L27.118 16.1931C26.9544 15.2923 27.609 14.6379 28.4279 14.5572L34.0803 14.2279ZM3.12905 1.95772L26.4648 0.238979C29.3307 -0.00640358 30.0679 0.158247 31.8685 1.46589L39.3182 6.70178C40.5471 7.60259 40.9571 7.84795 40.9571 8.82842V37.5436C40.9571 39.3429 40.3017 40.4073 38.0095 40.5698L10.9091 42.2069C9.18818 42.2887 8.36918 42.0433 7.46838 40.898L1.98287 33.781C1.00028 32.4711 0.591309 31.4907 0.591309 30.3446V4.81945C0.591309 3.34823 1.24672 2.12024 3.12905 1.95772Z" fill="black"/>
</svg>
