<svg width="42" height="41" viewBox="0 0 42 41" fill="none" xmlns="http://www.w3.org/2000/svg">
<path d="M30.8025 4.4302C30.8025 2.15272 28.956 0.306221 26.6784 0.306221C24.4009 0.306221 22.5544 2.15272 22.5544 4.4302C22.5544 5.72306 22.5544 14.4731 22.5544 15.7711C22.5544 18.0485 24.4009 19.895 26.6784 19.895C28.956 19.895 30.8025 18.0485 30.8025 15.7711C30.8025 14.4731 30.8025 5.72306 30.8025 4.4302Z" fill="#33D375"/>
<path d="M41.1115 15.7713C41.1115 18.0487 39.265 19.8952 36.9874 19.8952C35.7554 19.8952 32.8635 19.8952 32.8635 19.8952C32.8635 19.8952 32.8635 16.8167 32.8635 15.7713C32.8635 13.4938 34.71 11.6473 36.9874 11.6473C39.265 11.6473 41.1115 13.4938 41.1115 15.7713Z" fill="#33D375"/>
<path d="M5.02775 10.6166C2.75031 10.6166 0.903809 12.4631 0.903809 14.7405C0.903809 17.018 2.75031 18.8645 5.02775 18.8645C6.32062 18.8645 15.0706 18.8645 16.3686 18.8645C18.6461 18.8645 20.4926 17.018 20.4926 14.7405C20.4926 12.4631 18.6461 10.6166 16.3686 10.6166C15.0706 10.6166 6.32062 10.6166 5.02775 10.6166Z" fill="#40C4FF"/>
<path d="M16.3683 0.306221C18.6458 0.306221 20.4923 2.15272 20.4923 4.4302C20.4923 5.66222 20.4923 8.55414 20.4923 8.55414C20.4923 8.55414 17.4138 8.55414 16.3683 8.55414C14.0909 8.55414 12.2444 6.70764 12.2444 4.4302C12.2444 2.15272 14.0909 0.306221 16.3683 0.306221Z" fill="#40C4FF"/>
<path d="M11.2129 36.3969C11.2129 38.6714 13.0594 40.5148 15.3369 40.5148C17.6143 40.5148 19.4608 38.6714 19.4608 36.3969C19.4608 35.1062 19.4608 26.3686 19.4608 25.0726C19.4608 22.7983 17.6143 20.9548 15.3369 20.9548C13.0594 20.9548 11.2129 22.7983 11.2129 25.0726C11.2129 26.3686 11.2129 35.1062 11.2129 36.3969Z" fill="#E91E63"/>
<path d="M0.903809 25.0726C0.903809 22.7983 2.75031 20.9548 5.02775 20.9548C6.25978 20.9548 9.1517 20.9548 9.1517 20.9548C9.1517 20.9548 9.1517 24.0282 9.1517 25.0726C9.1517 27.3468 7.3052 29.1902 5.02775 29.1902C2.75031 29.1902 0.903809 27.3468 0.903809 25.0726Z" fill="#E91E63"/>
<path d="M36.9878 30.2048C39.2651 30.2048 41.1116 28.3583 41.1116 26.081C41.1116 23.8035 39.2651 21.957 36.9878 21.957C35.6949 21.957 26.9449 21.957 25.6469 21.957C23.3695 21.957 21.5229 23.8035 21.5229 26.081C21.5229 28.3583 23.3695 30.2048 25.6469 30.2048C26.9439 30.2048 35.6949 30.2048 36.9878 30.2048Z" fill="#FFC107"/>
<path d="M25.6469 40.5153C23.3695 40.5153 21.5229 38.6688 21.5229 36.3914C21.5229 35.1592 21.5229 32.2673 21.5229 32.2673C21.5229 32.2673 24.6015 32.2673 25.6469 32.2673C27.9245 32.2673 29.771 34.1138 29.771 36.3914C29.771 38.6688 27.9245 40.5153 25.6469 40.5153Z" fill="#FFC107"/>
</svg>
