<svg width="41" height="40" viewBox="0 0 41 40" fill="none" xmlns="http://www.w3.org/2000/svg">
<path d="M40.1304 19.7687C40.1304 30.6133 31.3378 39.4059 20.4932 39.4059C9.64851 39.4059 0.855957 30.6133 0.855957 19.7687C0.855957 8.92404 9.64851 0.131485 20.4932 0.131485C31.3378 0.131485 40.1304 8.92404 40.1304 19.7687Z" fill="url(#paint0_linear_332_1278)"/>
<path opacity="0.05" d="M6.86403 19.2447C14.8711 15.6167 24.2754 11.6804 25.7237 11.111C28.9167 9.85516 30.309 11.1384 30.091 13.1856C29.8229 15.6943 28.5524 22.9944 27.7709 28.2247C27.3133 31.2851 25.6559 32.2228 23.7854 31.0357C22.3666 30.1354 17.4887 26.9414 16.2054 25.8496C15.3306 25.1053 14.7209 24.2708 15.3414 23.4205C15.5231 23.1721 15.9875 22.6714 16.2457 22.422C17.5408 21.1672 17.366 20.8972 15.7999 22.0175C15.6134 22.151 14.5314 22.9355 14.0866 23.232C12.9967 23.9586 11.9942 23.9979 10.2946 23.4205C8.90434 22.9483 7.56901 22.584 6.72657 22.2197C5.56307 21.716 5.1173 20.0361 6.86403 19.2447Z" fill="black"/>
<path opacity="0.07" d="M7.5679 19.3672C15.0025 16.0436 24.1456 12.2349 25.4829 11.6959C28.6877 10.4018 29.8669 11.1696 29.5223 13.6704C29.2022 15.9856 28.0662 23.1493 27.2699 27.9515C26.8006 30.7783 25.4299 31.4008 23.6449 30.2461C22.5265 29.5255 18.0257 26.5602 16.9339 25.6972C16.0895 25.0305 15.2146 24.2607 16.2367 23.1463C16.5784 22.7742 18.4656 20.9529 19.8765 19.5979C20.6944 18.8114 20.4028 18.4236 19.416 19.0991C17.6064 20.3392 14.6461 22.3019 14.1179 22.6584C13.1115 23.3358 12.1659 23.4988 10.5204 22.9814C9.22331 22.5729 7.97046 22.1772 7.31752 21.9229C5.85848 21.3574 5.83884 20.1399 7.5679 19.3672Z" fill="black"/>
<path d="M8.27232 19.4906C15.1355 16.4714 24.0164 12.7904 25.2428 12.2808C28.4584 10.9475 29.4451 11.2027 28.9532 14.1562C28.5998 16.279 27.5806 23.3061 26.7676 27.6803C26.2855 30.2744 25.2035 30.5817 23.5029 29.4594C22.685 28.9194 18.5563 26.1888 17.6599 25.5477C16.842 24.9635 15.7138 24.2605 17.1287 22.8761C17.6324 22.3832 20.9324 19.2314 23.5039 16.7787C23.8407 16.4567 23.4175 15.9274 23.0287 16.1857C19.5627 18.4842 14.7575 21.6743 14.1458 22.0896C13.2219 22.717 12.3343 23.0047 10.7417 22.5472C9.53793 22.2015 8.36265 21.7892 7.9051 21.6321C6.14266 21.0272 6.56093 20.2437 8.27232 19.4906Z" fill="white"/>
<defs>
<linearGradient id="paint0_linear_332_1278" x1="6.60769" y1="5.88322" x2="34.3786" y2="33.6542" gradientUnits="userSpaceOnUse">
<stop stop-color="#33BEF0"/>
<stop offset="1" stop-color="#0A85D9"/>
</linearGradient>
</defs>
</svg>
