<svg width="31" height="28" viewBox="0 0 31 28" fill="none" xmlns="http://www.w3.org/2000/svg">
<path d="M9.342 3.3465C9.02081 3.21374 8.76833 2.9593 8.64212 2.64954L7.59797 0.2821C7.40291 -0.0940335 6.84068 -0.0940335 6.65709 0.2821L5.61294 2.64954C5.47525 2.9593 5.22282 3.20268 4.91302 3.3465L3.58202 3.92176C3.1919 4.10983 3.1919 4.65191 3.58202 4.83998L4.91302 5.41524C5.23429 5.548 5.48673 5.80244 5.61294 6.1122L6.65709 8.49065C6.85215 8.86689 7.41438 8.86689 7.59797 8.49065L8.64212 6.1122C8.77978 5.80244 9.03221 5.55906 9.342 5.41524L10.6731 4.83998C11.0631 4.65191 11.0631 4.10983 10.6731 3.92176L9.342 3.3465Z" fill="url(#paint0_linear_412_572)"/>
<path d="M25.8521 10.4776C24.8981 10.0529 24.1438 9.27055 23.7445 8.30949L20.6052 0.888501C20.0283 -0.296167 18.3534 -0.296167 17.7766 0.888501L14.6372 8.30949C14.2269 9.27055 13.4725 10.0529 12.5297 10.4776L8.55845 12.277C7.38262 12.8581 7.38262 14.5569 8.55845 15.138L12.5297 16.9374C13.4836 17.3621 14.238 18.1445 14.6372 19.1055L17.7766 26.5265C18.3534 27.7112 20.0283 27.7112 20.6052 26.5265L23.7445 19.1055C24.1549 18.1445 24.9092 17.3621 25.8521 16.9374L29.8233 15.138C30.9992 14.5569 30.9992 12.8581 29.8233 12.277L25.8521 10.4776Z" fill="url(#paint1_linear_412_572)"/>
<path d="M6.88786 17.9075C7.06401 18.3371 7.38522 18.67 7.78932 18.8634L9.48867 19.6583C9.99628 19.9161 9.99628 20.6572 9.48867 20.915L7.78932 21.7099C7.38522 21.9033 7.06401 22.2469 6.88786 22.6658L5.54086 25.9313C5.29217 26.4468 4.57723 26.4468 4.32855 25.9313L2.98155 22.6658C2.8054 22.2362 2.48419 21.9033 2.08009 21.7099L0.380786 20.915C-0.126929 20.6572 -0.126929 19.9161 0.380786 19.6583L2.08009 18.8634C2.48419 18.67 2.8054 18.3264 2.98155 17.9075L4.32855 14.642C4.57723 14.1265 5.29217 14.1265 5.54086 14.642L6.88786 17.9075Z" fill="url(#paint2_linear_412_572)"/>
<defs>
<linearGradient id="paint0_linear_412_572" x1="7.12752" y1="1.47269e-07" x2="4.44981" y2="6.84467" gradientUnits="userSpaceOnUse">
<stop stop-color="#BA45E0"/>
<stop offset="0.40625" stop-color="#702BF9"/>
<stop offset="0.770833" stop-color="#EDBBC2"/>
<stop offset="1" stop-color="#FF3EFE"/>
</linearGradient>
<linearGradient id="paint1_linear_412_572" x1="19.1909" y1="4.60214e-07" x2="10.5718" y2="21.1508" gradientUnits="userSpaceOnUse">
<stop stop-color="#BA45E0"/>
<stop offset="0.40625" stop-color="#702BF9"/>
<stop offset="0.770833" stop-color="#EDBBC2"/>
<stop offset="1" stop-color="#FF3EFE"/>
</linearGradient>
<linearGradient id="paint2_linear_412_572" x1="4.93469" y1="14.2554" x2="1.07092" y2="23.4906" gradientUnits="userSpaceOnUse">
<stop stop-color="#BA45E0"/>
<stop offset="0.40625" stop-color="#702BF9"/>
<stop offset="0.770833" stop-color="#EDBBC2"/>
<stop offset="1" stop-color="#FF3EFE"/>
</linearGradient>
</defs>
</svg>
