<svg width="41" height="33" viewBox="0 0 41 33" fill="none" xmlns="http://www.w3.org/2000/svg">
<path d="M34.6949 2.85656C32.1085 1.63416 29.3335 0.733751 26.4333 0.218008C26.3807 0.20851 26.3281 0.233205 26.3005 0.282595C25.9433 0.936059 25.5486 1.78803 25.2717 2.45859C22.152 1.97799 19.0478 1.97799 15.9925 2.45859C15.7158 1.77378 15.3062 0.936059 14.9473 0.282595C14.9197 0.234155 14.8671 0.20946 14.8145 0.218008C11.9151 0.731851 9.1412 1.63226 6.55271 2.85656C6.53056 2.86605 6.51118 2.88316 6.49828 2.905C1.2364 10.9992 -0.205449 18.8949 0.5021 26.6919C0.504867 26.7299 0.526085 26.767 0.554682 26.7897C4.02601 29.415 7.3894 31.0086 10.6901 32.0648C10.7426 32.081 10.7989 32.0621 10.8321 32.0164C11.6125 30.9185 12.309 29.7615 12.9059 28.544C12.9409 28.4728 12.9077 28.3881 12.8358 28.3597C11.7315 27.9285 10.6808 27.4032 9.66978 26.8059C9.58954 26.7574 9.58307 26.6396 9.65688 26.5836C9.86998 26.4193 10.0821 26.2482 10.286 26.0764C10.3229 26.045 10.3737 26.0384 10.417 26.0582C17.0598 29.1813 24.2517 29.1813 30.8159 26.0582C30.8592 26.0364 30.9101 26.0432 30.9487 26.0744C31.1518 26.2473 31.3649 26.4193 31.5788 26.5836C31.6526 26.6396 31.6482 26.7574 31.5677 26.8059C30.5567 27.4145 29.505 27.9285 28.4001 28.3579C28.328 28.3863 28.2958 28.4717 28.3309 28.544C28.9406 29.7597 29.6361 30.9165 30.4027 32.0146C30.4349 32.061 30.4922 32.081 30.5448 32.0639C33.8612 31.0077 37.2246 29.4139 40.6959 26.7888C40.7262 26.7658 40.7456 26.7308 40.7485 26.6928C41.5942 17.6782 39.3306 9.84804 34.7475 2.90594C34.7365 2.88316 34.7173 2.86605 34.6949 2.85656ZM13.8975 21.9438C11.8976 21.9438 10.25 20.0537 10.25 17.7314C10.25 15.4091 11.8662 13.519 13.8975 13.519C15.9455 13.519 17.5773 15.4262 17.5451 17.7314C17.546 20.0527 15.9298 21.9438 13.8975 21.9438ZM27.3853 21.9438C25.3853 21.9438 23.7376 20.0537 23.7376 17.7314C23.7376 15.4091 25.354 13.519 27.3853 13.519C29.4332 13.519 31.065 15.4262 31.0327 17.7314C31.0327 20.0527 29.4332 21.9438 27.3853 21.9438Z" fill="#536DFE"/>
</svg>
